<?xml version="1.0" encoding="UTF-8" standalone="no"?>
<!-- Created with Inkscape (http://www.inkscape.org/) -->

<svg
   width="61.471844in"
   height="21.152929in"
   viewBox="0 0 1561.3849 537.2844"
   version="1.1"
   id="svg5"
   inkscape:version="1.1.1 (3bf5ae0d25, 2021-09-20)"
   sodipodi:docname="bci_system.svg"
   inkscape:export-filename="/home/yeison/Development/BCI-Framework/thesis_presentation/assets/bci_system.png"
   inkscape:export-xdpi="96"
   inkscape:export-ydpi="96"
   xmlns:inkscape="http://www.inkscape.org/namespaces/inkscape"
   xmlns:sodipodi="http://sodipodi.sourceforge.net/DTD/sodipodi-0.dtd"
   xmlns:xlink="http://www.w3.org/1999/xlink"
   xmlns="http://www.w3.org/2000/svg"
   xmlns:svg="http://www.w3.org/2000/svg">
  <sodipodi:namedview
     id="namedview7"
     pagecolor="#ffffff"
     bordercolor="#111111"
     borderopacity="1"
     inkscape:pageshadow="0"
     inkscape:pageopacity="0"
     inkscape:pagecheckerboard="false"
     inkscape:document-units="mm"
     showgrid="false"
     units="in"
     inkscape:zoom="0.1557404"
     inkscape:cx="2735.3211"
     inkscape:cy="895.72134"
     inkscape:window-width="1920"
     inkscape:window-height="1006"
     inkscape:window-x="0"
     inkscape:window-y="0"
     inkscape:window-maximized="1"
     inkscape:current-layer="layer1"
     showguides="true"
     inkscape:guide-bbox="true"
     inkscape:snap-bbox="true"
     inkscape:bbox-paths="true"
     inkscape:bbox-nodes="true"
     inkscape:snap-bbox-edge-midpoints="true"
     inkscape:snap-bbox-midpoints="true"
     inkscape:object-paths="true"
     inkscape:object-nodes="true"
     inkscape:snap-smooth-nodes="true"
     inkscape:snap-midpoints="true"
     inkscape:snap-intersection-paths="true"
     inkscape:snap-object-midpoints="true"
     inkscape:snap-center="true"
     inkscape:snap-text-baseline="true"
     fit-margin-top="1"
     fit-margin-left="1"
     fit-margin-right="1"
     fit-margin-bottom="1"
     inkscape:snap-global="false"
     lock-margins="true"
     inkscape:snap-page="true" />
  <defs
     id="defs2">
    <linearGradient
       inkscape:collect="always"
       id="linearGradient3293">
      <stop
         style="stop-color:#000000;stop-opacity:1;"
         offset="0"
         id="stop3289" />
      <stop
         style="stop-color:#000000;stop-opacity:0"
         offset="1"
         id="stop3291" />
    </linearGradient>
    <linearGradient
       inkscape:collect="always"
       xlink:href="#linearGradient3293"
       id="linearGradient3295"
       x1="-305.39005"
       y1="-751.41913"
       x2="-179.45074"
       y2="-751.41913"
       gradientUnits="userSpaceOnUse" />
  </defs>
  <g
     inkscape:label="Layer 1"
     inkscape:groupmode="layer"
     id="layer1"
     transform="translate(482.76445,1065.9954)">
    <g
       id="g4285"
       transform="translate(5.053753e-5)">
      <g
         id="g19810">
        <path
           id="path862"
           style="stroke:none;stroke-width:2.035;stroke-miterlimit:4;stroke-dasharray:none"
           d="m 878.26172,-875.02734 c -1.33041,0.0113 -1.58228,2.13813 -0.35156,2.53125 1.05644,0.40424 2.17484,-0.86921 1.60546,-1.85547 -0.24303,-0.43712 -0.75839,-0.70425 -1.2539,-0.67578 z" />
        <path
           id="path864"
           style="stroke:none;stroke-width:2.035;stroke-miterlimit:4;stroke-dasharray:none"
           d="m 870.94531,-875.02539 c -1.33609,0.0418 -1.5433,2.19266 -0.28515,2.54883 1.01625,0.33204 2.05392,-0.79958 1.60546,-1.77539 -0.20425,-0.50685 -0.7855,-0.82094 -1.32031,-0.77344 z" />
        <path
           id="path866"
           style="stroke:none;stroke-width:2.035;stroke-miterlimit:4;stroke-dasharray:none"
           d="m 885.5293,-875.02539 c -1.31244,0.0383 -1.54838,2.13237 -0.33399,2.52734 1.0186,0.39279 2.11546,-0.76315 1.65235,-1.75586 -0.20483,-0.50944 -0.78277,-0.8119 -1.31836,-0.77148 z" />
        <path
           id="path868"
           style="stroke:none;stroke-width:2.035;stroke-miterlimit:4;stroke-dasharray:none"
           d="m 847.83789,-903.52344 c -11.14191,0.0343 -22.28393,-0.0118 -33.42578,0.0449 -1.25361,0.27519 -1.21025,2.37003 0.0769,2.53926 7.61269,0.0717 15.23458,0.0242 22.85081,0.0356 3.87767,0.005 7.75523,-0.0257 11.63282,-0.0456 1.20569,-0.35505 1.10289,-2.36327 -0.15476,-2.54278 -0.32286,-0.0267 -0.65426,-0.0399 -0.98001,-0.0314 z" />
        <path
           id="path870"
           style="stroke:none;stroke-width:2.035;stroke-miterlimit:4;stroke-dasharray:none"
           d="m 847.80664,-891.77148 c -11.0991,0.0151 -22.20108,-0.007 -33.29836,0.0502 -1.25104,0.13616 -1.38052,2.11979 -0.2075,2.48695 1.60206,0.15246 3.24388,0.0489 4.86172,0.0898 9.92237,-0.0227 19.84491,0.0121 29.76719,-0.043 1.21607,-0.30654 1.19223,-2.33183 -0.0684,-2.53711 -0.34808,-0.0366 -0.7031,-0.061 -1.05469,-0.0469 z" />
        <path
           id="path872"
           style="stroke:none;stroke-width:2.035;stroke-miterlimit:4;stroke-dasharray:none"
           d="m 831.03711,-933.67383 c -10.28208,0.19475 -20.68088,3.57959 -28.51367,10.3711 -5.36889,4.63976 -9.4136,11.04782 -10.39453,18.15039 -1.21538,7.66592 1.33335,15.66118 6.24073,21.59688 5.50906,6.80061 13.54104,11.22706 21.96768,13.2869 0.96294,0.22617 0.62504,1.38487 0.66659,2.09473 -0.0877,5.3755 -0.52283,10.70474 -0.94727,16.06641 0.32779,1.0905 1.80796,1.17711 2.54454,0.45942 6.60555,-3.58073 11.47255,-9.66124 15.01951,-16.16654 0.34911,-0.44026 0.46722,-1.06771 0.82658,-1.47257 2.78187,-0.36923 5.52296,-1.00123 8.21484,-1.78711 0.72139,5.18598 3.24607,10.05782 6.9763,13.71907 5.20672,5.20387 12.30661,8.19211 19.52956,9.21453 2.84134,5.50762 6.82281,10.6495 12.28969,13.74625 0.69981,0.52768 1.96329,0.73057 2.40637,-0.22286 0.40302,-1.05546 -0.11019,-2.18232 -0.0763,-3.27356 -0.31759,-3.63331 -0.46837,-7.25928 -0.53577,-10.9139 7.05355,-1.71394 13.8147,-5.44202 18.24277,-11.30033 4.43889,-5.69671 5.92989,-13.6752 3.42325,-20.50045 -2.39226,-6.7084 -7.93565,-11.91133 -14.26546,-14.94443 -6.63818,-3.2178 -14.22881,-4.20809 -21.51856,-3.28595 -0.4497,-0.008 -1.26363,0.37358 -0.96598,-0.40243 0.40511,-6.57184 -1.55066,-13.27021 -5.53384,-18.5254 -5.55122,-7.50018 -14.08527,-12.42821 -23.07882,-14.56919 -4.09192,-0.98056 -8.31155,-1.41627 -12.5182,-1.34096 z m 0.98242,2.59571 c 9.16147,-0.007 18.50946,2.65915 25.93126,8.25112 4.33396,3.23941 7.87346,7.52237 9.9048,12.59292 0.96243,2.40348 1.55198,4.9305 1.70105,7.46064 0.19215,2.9934 -0.21642,6.0026 -1.14453,8.83203 -1.68534,5.23093 -5.10438,9.83863 -9.39913,13.32368 -6.1357,5.0536 -13.82579,7.92708 -21.66728,8.84039 -1.29167,0.44487 -1.46415,1.96888 -2.15982,2.96603 -2.80375,5.14515 -6.51298,9.93213 -11.34604,13.36795 -0.73711,0.22562 -1.01196,-0.73194 -0.82872,-1.28718 0.44665,-4.90799 0.63601,-9.83717 0.59044,-14.76555 -0.40875,-1.08742 -1.68456,-1.05485 -2.62109,-1.30274 -5.04568,-1.20624 -9.99412,-3.38437 -14.14844,-6.36719 -5.28602,-3.78861 -9.66376,-9.12948 -11.43555,-15.46484 -0.97703,-3.39259 -1.26097,-7.2916 -0.5996,-10.85547 1.34505,-7.42442 6.19975,-13.85109 12.31833,-18.09454 7.22864,-5.07745 16.12318,-7.4779 24.90432,-7.49725 z m 46.33789,34.50976 c 8.55116,-0.0139 17.41335,3.02478 23.41979,9.3149 4.27955,4.4681 6.65014,10.87699 5.46114,17.03122 -1.14817,6.328 -5.56382,11.68512 -10.98126,14.9551 -3.36876,2.06601 -7.08653,3.39653 -10.92311,4.22417 -1.02533,0.71178 -0.61755,2.04765 -0.66037,3.08669 0.0498,3.50765 0.26395,7.00909 0.4885,10.50901 -3.62086,-2.84618 -6.64371,-6.32898 -8.85846,-10.36819 -0.643,-0.92757 -0.83523,-2.38507 -2.03436,-2.77917 -1.7627,-0.3232 -3.54606,-0.53491 -5.27124,-1.04209 -6.84914,-1.79001 -13.35097,-5.84541 -17.05143,-12.00118 -1.50629,-2.51918 -2.44649,-5.50309 -2.73959,-8.32304 7.66238,-3.00299 14.75887,-8.09484 19.00925,-15.2578 1.61989,-2.70546 2.79158,-5.67886 3.47122,-8.75392 2.22752,-0.37522 4.42041,-0.58457 6.66992,-0.5957 z" />
        <path
           id="path874"
           style="stroke:none;stroke-width:2.035;stroke-miterlimit:4;stroke-dasharray:none"
           d="m 838.29688,-915.26953 c -7.99411,0.0359 -15.9887,-0.0414 -23.98243,0.0645 -1.1941,0.38683 -1.05012,2.41251 0.23243,2.52735 8.34496,0.0267 16.69651,0.0833 25.04296,-0.0488 1.17088,-0.43762 0.95778,-2.42136 -0.31054,-2.5293 -0.32774,10e-4 -0.65442,-0.0309 -0.98242,-0.0137 z" />
        <path
           id="path876"
           style="stroke:none;stroke-width:2.035;stroke-miterlimit:4;stroke-dasharray:none"
           d="m 848.4375,-915.25195 c -1.32649,0.0308 -1.56386,2.18884 -0.30469,2.54101 1.10379,0.40571 2.20361,-1.01129 1.51563,-1.96875 -0.26498,-0.3767 -0.7508,-0.61306 -1.21094,-0.57226 z" />
        <path
           id="path894"
           style="stroke:none;stroke-width:2.065;stroke-miterlimit:4;stroke-dasharray:none"
           d="m 799.35352,-804.7832 c -0.92303,-0.0143 -1.30814,1.6542 -0.32618,2.00781 0.1404,0.069 4.08771,0.0982 4.22995,0.0953 0.76501,-0.0158 1.44758,-0.96154 0.87444,-1.64802 -0.15093,-0.22348 -0.39396,-0.39813 -0.66029,-0.45162 -0.10307,-0.0207 -4.01186,-0.0233 -4.11792,-0.003 z"
           sodipodi:nodetypes="ccscsc" />
        <path
           id="path898"
           style="stroke:none;stroke-width:2.065;stroke-miterlimit:4;stroke-dasharray:none"
           d="m 813.79688,-821.52539 c -14.72332,-0.0171 -29.44663,-0.0121 -44.16993,0.0156 -1.06022,0.1602 -1.08053,2.03313 0.081,2.03048 1.35807,0.19301 2.73703,-0.0322 4.10416,0.0612 14.65605,0.0103 29.31441,-0.0397 43.96898,0.0477 3.97966,0.337 7.15569,4.45053 6.42232,8.38913 -0.51615,3.58898 -4.02031,6.45406 -7.64981,6.18176 -1.91626,0.0726 -3.85801,-0.14307 -5.75672,0.12567 -0.8633,0.46882 -0.57727,2.04446 0.49578,1.96298 1.43148,0.0922 2.87013,-0.0307 4.30539,0.0346 2.35334,0.0938 4.8332,-0.25031 6.76322,-1.70465 3.12748,-2.15377 4.74979,-6.2849 3.76825,-9.97731 -0.96216,-4.15674 -5.04376,-7.32293 -9.31807,-7.17381 -1.00457,-0.0371 -2.00983,-0.004 -3.01457,0.007 z" />
        <path
           id="path900"
           style="stroke:none;stroke-width:2.065;stroke-miterlimit:4;stroke-dasharray:none"
           d="m 786.7832,-804.80273 c -15.66379,0.0326 -31.32978,-0.0497 -46.99217,0.0589 -5.2373,0.43712 -9.78074,4.98941 -10.15822,10.2419 -0.15474,1.79435 0.16245,3.65568 0.80106,5.22065 1.42291,3.69985 4.9484,6.44239 8.87462,6.9533 2.15947,0.31294 4.3464,0.0459 6.51885,0.12878 11.14284,0 22.28568,0 33.42852,0 0,4.00195 0,8.00391 0,12.00586 -10.98575,0.0255 -21.97349,-0.0666 -32.9579,0.0704 -6.92403,0.40802 -13.64063,2.98793 -19.08894,7.32977 -7.50602,5.91922 -12.37665,15.07102 -12.95632,24.62577 -0.53469,7.46159 1.48461,15.14314 5.63597,21.31778 4.17138,6.28975 10.36841,11.12707 17.52237,13.55549 5.89319,2.03191 12.39448,2.34025 18.51474,0.98748 3.56481,-0.77565 7.1326,-2.21606 10.28614,-4.16367 3.22362,-1.98139 6.1601,-4.50697 8.59388,-7.47233 0.80864,-0.97314 1.53318,-2.01198 2.25865,-3.04759 2.16797,0 4.33594,0 6.50391,0 4.4978,6.89043 11.59359,12.14607 19.50781,14.27343 8.19007,2.28321 17.22176,1.38721 24.76512,-2.55443 6.15039,-3.15117 11.3483,-8.31446 14.55324,-14.35377 3.55526,-6.57119 4.85587,-14.46162 3.58524,-21.87959 -0.60305,-3.77671 -1.96896,-7.68476 -3.84291,-11.01324 -2.6102,-4.76372 -6.46278,-8.88974 -10.93178,-11.89037 -4.86646,-3.29646 -10.75541,-5.33511 -16.62305,-5.69141 -4.08818,-0.2128 -8.18388,-0.0291 -12.27539,-0.0937 -6.97786,0 -13.95573,0 -20.93359,0 -0.0489,-4.49071 0.0901,-8.99346 -0.0801,-13.47656 -0.51607,-0.99841 -1.81261,-0.56129 -2.70664,-0.64435 -12.89496,-0.0147 -25.79257,0.0491 -38.68582,-0.0562 -4.67967,-0.41473 -8.54997,-4.93542 -8.18086,-9.63164 0.20815,-4.37506 3.91818,-8.37632 8.34867,-8.6108 2.37677,-0.1892 4.76428,0.01 7.14574,-0.0685 13.58295,5.6e-4 27.16593,0.0165 40.74883,-0.0276 1.03384,-0.16563 1.08872,-1.96077 -0.0312,-2.04513 -0.37696,-0.0702 -0.76662,-0.0522 -1.14848,-0.0486 z m -38.67578,36.70898 c 3.45218,0.0309 6.90496,0.009 10.35742,0.0156 0.0486,4.66912 -0.0897,9.35016 0.0801,14.01171 0.51728,0.99754 1.81309,0.56108 2.7086,0.64471 13.3582,-10e-4 26.71645,0.0205 40.0746,-0.0275 0.91452,-0.19983 0.9248,-1.31623 0.83399,-2.05586 0,-4.19101 0,-8.38203 0,-12.57304 4.75431,0.0852 9.52849,-0.23156 14.26625,0.27595 10.52343,1.31684 20.09877,8.29629 24.67419,17.8514 4.33252,8.85245 4.33524,19.71512 -0.14301,28.5149 -4.12523,8.27727 -11.9196,14.6764 -20.92651,16.88182 -9.35962,2.36185 -19.77653,0.28998 -27.3827,-5.69903 -3.09455,-2.36943 -5.66354,-5.3688 -7.81794,-8.593 -0.96671,-0.55947 -2.13062,-0.11133 -3.18276,-0.25673 -1.87349,0.0591 -3.77767,-0.14609 -5.6301,0.12039 -0.97607,0.73688 -1.33521,1.99807 -2.18874,2.85795 -6.06887,8.03067 -16.12561,12.84533 -26.1885,12.52925 -9.32962,-0.19877 -18.46626,-4.71188 -24.25801,-12.03721 -5.63252,-6.99028 -8.16938,-16.38735 -6.71045,-25.25624 1.44533,-9.20006 7.05123,-17.67002 15.03816,-22.48465 4.91371,-2.99896 10.63886,-4.65016 16.39543,-4.72043 z m 13.00391,0.0156 c 12.97786,0 25.95573,-10e-6 38.93359,0 0,4.18033 0,8.36067 0,12.54101 -13.15429,0 -26.30859,0 -39.46289,0 0,-4.18034 0,-8.36068 0,-12.54101 0.17643,0 0.35287,0 0.5293,0 z" />
        <path
           id="path902"
           style="stroke:none;stroke-width:2.065;stroke-miterlimit:4;stroke-dasharray:none"
           d="m 801.37695,-734.46875 c -4.04452,0.0934 -7.58671,3.86899 -7.36041,7.92134 0.0805,3.20038 2.27248,6.26761 5.37283,7.18912 3.55822,1.17813 7.86448,-0.60392 9.37361,-4.07504 1.3671,-2.91814 0.77418,-6.67769 -1.63092,-8.8816 -1.52027,-1.45475 -3.6489,-2.27249 -5.75511,-2.15382 z m 0.3711,2.10156 c 3.32599,-0.1155 6.21639,3.27194 5.57031,6.54102 -0.44588,3.17087 -3.98206,5.47053 -7.05359,4.52674 -3.07412,-0.78461 -5.01919,-4.47908 -3.77435,-7.43203 0.79223,-2.12834 2.97837,-3.66568 5.25763,-3.63573 z" />
        <path
           id="path904"
           style="stroke:none;stroke-width:2.065;stroke-miterlimit:4;stroke-dasharray:none"
           d="m 817.25781,-750.85938 c -3.91259,0.13019 -7.3716,3.66446 -7.31048,7.6032 -0.10403,3.53016 2.48044,6.95699 5.97049,7.6638 3.37292,0.84706 7.19213,-0.88588 8.68529,-4.04768 1.44318,-2.81308 0.98978,-6.44377 -1.23179,-8.73644 -1.54284,-1.68745 -3.82513,-2.63871 -6.11351,-2.48288 z m 0.42188,2.10352 c 3.33293,-0.12397 6.23408,3.30196 5.56769,6.56158 -0.4542,3.21617 -4.09684,5.50891 -7.18887,4.47219 -3.08325,-0.87084 -4.9316,-4.68241 -3.54874,-7.6113 0.8493,-2.02185 2.97024,-3.44691 5.16992,-3.42247 z" />
        <path
           id="path906"
           style="stroke:none;stroke-width:2.065;stroke-miterlimit:4;stroke-dasharray:none"
           d="m 754.33398,-747.5957 c -3.749,0.0683 -7.50564,-0.0385 -11.25,0.0781 -1.0341,0.45742 -0.64664,1.74939 -0.70312,2.63203 0,1.49701 0,2.99401 0,4.49102 -2.19933,0.0881 -4.41656,-0.12864 -6.60352,0.11523 -0.94992,0.5904 -0.4893,1.86723 -0.58268,2.78086 0.0297,3.2846 -0.0797,6.58044 0.0749,9.85782 0.483,0.97554 1.74229,0.58898 2.6086,0.65234 1.4957,0 2.9914,0 4.4871,0 0.11434,2.20945 -0.14911,4.44355 0.13868,6.63672 0.6379,0.92231 1.92787,0.44624 2.86289,0.54946 3.25009,-0.0296 6.51143,0.0796 9.75429,-0.0748 1.00962,-0.50683 0.57162,-1.81443 0.6543,-2.71055 0,-1.46497 0,-2.92995 0,-4.39492 2.19655,-0.0715 4.41145,0.11961 6.5957,-0.10742 0.95768,-0.58354 0.49947,-1.87166 0.5905,-2.78477 -0.0284,-3.28477 0.077,-6.57941 -0.0729,-9.85781 -0.51062,-1.00093 -1.81615,-0.5724 -2.71054,-0.65235 -1.46303,0 -2.92605,0 -4.38907,0 -0.10096,-2.19953 0.13085,-4.41447 -0.12109,-6.60351 -0.24726,-0.47436 -0.83395,-0.64052 -1.33399,-0.60742 z m -9.30859,2.14062 c 2.87305,0 5.74609,0 8.61914,0 0.1134,2.20758 -0.147,4.43909 0.13672,6.63086 0.60454,0.9092 1.85893,0.4661 2.76484,0.55664 1.43386,0 2.86771,0 4.30157,0 0,3.05209 0,6.10417 0,9.15625 -2.19451,0.0717 -4.40807,-0.11988 -6.58985,0.10742 -0.96783,0.57952 -0.50314,1.86958 -0.59765,2.78477 0,1.43437 0,2.86875 0,4.30312 -3.05013,0 -6.10026,0 -9.15039,0 -0.10806,-2.20987 0.14641,-4.44159 -0.13477,-6.63671 -0.63808,-0.9256 -1.92757,-0.44703 -2.86289,-0.55274 -1.40117,0 -2.80234,0 -4.20352,0 0,-3.05078 0,-6.10156 0,-9.15234 2.19933,-0.0881 4.41656,0.12863 6.60352,-0.11524 0.95015,-0.59039 0.48851,-1.86722 0.58398,-2.78086 0,-1.43372 0,-2.86744 0,-4.30117 0.17644,0 0.35287,0 0.5293,0 z" />
        <path
           id="path933"
           style="stroke:none;stroke-width:1.424;stroke-miterlimit:4;stroke-dasharray:none"
           d="m 895.19141,-619.29102 c -0.73784,0.18883 -0.50435,1.52823 0.30078,1.28516 0.84999,-0.25431 0.59351,-1.43508 -0.30078,-1.28516 z" />
        <path
           id="path935"
           style="stroke:none;stroke-width:1.424;stroke-miterlimit:4;stroke-dasharray:none"
           d="m 873.83789,-678.08398 c -7.80538,0.17735 -15.29064,4.9258 -18.8204,11.88452 -0.84828,1.46297 -1.69656,2.92594 -2.54483,4.38891 -7.22141,-3.7824 -15.82723,-4.9432 -23.74909,-2.92086 -8.63213,2.09442 -16.34849,7.77514 -20.78528,15.48763 -3.94456,6.72276 -7.81752,13.48697 -11.74104,20.22237 -2.9885,5.18894 -6.03033,10.35385 -8.90711,15.60631 -4.27469,8.7167 -4.38194,19.31077 -0.37998,28.14459 3.65919,8.29164 10.86785,14.91986 19.43469,17.87753 6.19157,2.2092 13.03282,2.51405 19.3941,0.85057 8.23191,-2.07883 15.62208,-7.40846 20.05038,-14.6718 2.22965,-3.65408 4.29153,-7.39967 6.47089,-11.09642 4.8311,-8.36124 9.71322,-16.69303 14.45463,-25.10533 4.45514,-8.83925 4.62914,-19.67914 0.48188,-28.6648 -2.64528,-5.86887 -7.03616,-10.926 -12.45845,-14.38994 -0.33541,-0.60548 0.48253,-1.0291 0.62445,-1.57468 1.67672,-2.9017 3.24301,-5.95153 5.6861,-8.30228 0.93866,-0.87439 2.19804,-1.85912 3.33594,-2.53515 2.15574,-1.3019 4.69508,-2.21632 7.19889,-2.58833 5.55708,-0.91445 11.45633,0.78456 15.67423,4.51535 3.5496,3.07904 5.9792,7.42798 6.55548,12.13374 0.674,4.85248 -0.66518,9.86005 -3.35773,13.91811 -6.81702,11.79491 -13.71086,23.54602 -20.41856,35.40108 -1.89728,4.32122 0.14626,9.93779 4.45872,11.91838 3.45039,1.72498 7.96708,1.07237 10.66631,-1.72997 1.62557,-1.63417 2.49302,-3.82242 3.71352,-5.74429 1.01652,-1.81054 2.13646,-3.57493 3.05844,-5.43125 0.4513,-1.05159 -1.13579,-2.0465 -1.88906,-1.16945 -0.80126,0.97275 -1.29209,2.17734 -1.97494,3.23858 -1.38856,2.35242 -2.65602,4.75148 -4.20008,6.99998 -2.42063,2.99789 -7.49152,3.22977 -10.14032,0.40641 -1.59946,-1.61518 -2.28671,-3.98002 -1.89322,-6.24287 0.29435,-1.7815 1.54791,-3.16893 2.33221,-4.74378 6.65648,-11.61656 13.47793,-23.14068 20.05632,-34.80039 3.69347,-7.51714 2.47506,-17.13237 -2.9751,-23.49222 -4.23212,-5.0641 -10.80533,-8.03749 -17.41199,-7.79025 z m -36.88086,14.74609 c 4.97495,0.0177 9.89884,1.3467 14.32617,3.58398 -1.81771,3.13933 -3.63541,6.27865 -5.45312,9.41797 -2.69088,-0.77972 -5.86865,0.55674 -7.0058,3.16309 -1.7406,3.12752 -3.7482,6.15787 -5.272,9.41735 -0.65176,2.05938 0.11916,4.36163 1.58639,5.8805 -1.24284,2.14518 -2.48568,4.29036 -3.72851,6.43555 -8.64323,-4.94857 -17.28646,-9.89714 -25.92969,-14.84571 3.01867,-4.9706 5.45216,-10.4438 9.79791,-14.46332 5.76441,-5.5195 13.74091,-8.66285 21.67865,-8.58941 z m 16.39649,4.77344 c 6.34617,4.08293 11.19663,10.47427 13.25781,17.74804 1.97621,6.81278 1.51409,14.51082 -1.45927,21.14642 -1.54034,3.35966 -3.61186,6.43603 -5.39773,9.66476 -0.22109,0.8532 -0.71329,0.68958 -1.28576,0.22488 -8.33067,-4.82322 -16.66134,-9.64643 -24.99201,-14.46965 1.24024,-2.14258 2.48047,-4.28516 3.72071,-6.42773 2.65802,0.75641 5.82094,-0.51485 6.96533,-3.09112 1.7789,-3.16424 3.77049,-6.22105 5.31982,-9.50507 0.63346,-2.05649 -0.11963,-4.3559 -1.59375,-5.8667 1.82238,-3.13795 3.63858,-6.30256 5.46485,-9.42383 z m -8.9336,10.41601 c 2.21252,0.1937 3.75071,3.07289 2.41501,4.94505 -1.60965,2.90784 -3.30375,5.76806 -4.98561,8.63311 -0.60205,1.05742 -1.73426,1.81028 -2.98133,1.69377 -1.86766,-0.0372 -3.49968,-1.85529 -3.11994,-3.73091 0.33187,-1.63364 1.51926,-2.89807 2.23923,-4.3634 1.25131,-2.12692 2.38261,-4.35323 3.8557,-6.33219 0.68582,-0.63647 1.65414,-0.90976 2.57694,-0.84543 z m 13.63867,41.07032 c -5.01351,8.58627 -9.88676,17.25776 -15.03466,25.76515 -4.09719,6.07816 -10.59057,10.4965 -17.58838,12.38133 -3.84529,1.05212 -7.95389,1.30995 -11.81655,0.82012 -8.89343,-1.08755 -17.24411,-6.18646 -22.11156,-13.73511 -2.47627,-3.77628 -4.14091,-8.1756 -4.80627,-12.68657 -0.52158,-3.54373 -0.43447,-7.40849 0.38477,-10.99414 0.73079,-3.46456 2.18865,-6.87303 3.9707,-9.91602 4.31705,-7.30844 8.51768,-14.68667 12.78957,-22.0222 0.23021,-0.84591 0.71469,-0.73795 1.30044,-0.25015 17.63731,10.21253 35.27463,20.42506 52.91194,30.63759 z" />
        <path
           id="path1118"
           style="stroke:none;stroke-width:2.704;stroke-miterlimit:4;stroke-dasharray:none;stroke-opacity:1"
           d="m 944.70508,-756.55273 c -7.20191,0.13708 -14.39382,3.27762 -19.41898,8.5029 -4.08881,4.16992 -6.81092,9.65286 -7.68063,15.42678 -0.32183,2.19731 -0.40537,4.6686 -0.17578,6.94336 0.32103,3.22135 1.22811,6.41278 2.57218,9.23383 2.96005,6.31184 8.31328,11.38221 14.7534,14.00437 2.57419,1.06675 5.38673,1.76831 8.25997,2.01425 3.38611,0.29012 7.05031,-0.0497 10.39101,-1.06885 7.35686,-2.13006 13.71776,-7.50135 17.11133,-14.31055 2.70829,-5.30823 3.62421,-11.54631 2.61719,-17.3457 -0.55821,-3.3006 -1.77685,-6.68901 -3.53711,-9.63086 -2.81979,-4.76022 -7.16269,-8.72119 -12.17731,-11.0807 -3.94857,-1.89725 -8.34027,-2.79381 -12.71527,-2.68883 z m 0.70312,2.80664 c 8.98907,-0.085 17.77715,5.09925 22.0985,12.9736 4.0877,7.24444 4.29301,16.5412 0.39645,23.90903 -3.76497,7.32449 -11.2639,12.63162 -19.47355,13.54037 -7.56395,0.91997 -15.48829,-1.77072 -20.85678,-7.19656 -5.61,-5.5619 -8.42557,-13.83803 -7.18604,-21.66064 1.1627,-7.89127 6.26989,-15.0998 13.39265,-18.71892 3.57616,-1.85531 7.59915,-2.84431 11.62877,-2.84688 z" />
        <path
           id="path1124"
           style="stroke:none;stroke-width:2.704;stroke-miterlimit:4;stroke-dasharray:none;stroke-opacity:1"
           d="m 914.0957,-820.52539 c -4.20826,0.022 -8.42772,-0.075 -12.6289,0.0664 -0.96583,0.33943 -1.07549,1.49698 -0.95259,2.3664 0.0468,4.24922 -0.10257,8.51249 0.0913,12.75274 0.38899,0.97121 1.56667,0.9945 2.44297,0.89591 5.36708,-0.0453 10.74699,0.0998 16.10586,-0.0893 0.98148,-0.38072 1.00182,-1.5667 0.90429,-2.44493 0,-1.36666 0,-2.73333 0,-4.09999 4.22657,-10e-6 8.45313,0 12.67969,0 1.88537,13.8786 3.7733,27.75688 5.66406,41.63476 -8.86211,1.58036 -17.20459,6.02833 -23.33493,12.63707 -6.52518,6.98627 -10.59161,16.23199 -11.12397,25.7643 -0.30338,4.82597 0.23474,9.60706 1.5951,14.27643 3.14834,10.93184 11.1268,20.45765 21.3599,25.51361 8.45956,4.22313 18.34718,5.46152 27.60028,3.35823 7.59054,-1.69643 14.74298,-5.61065 20.26359,-11.17291 4.48333,-4.46148 7.90034,-9.96404 9.9955,-15.92751 8.35873,0 16.71745,0 25.07615,0 -0.1859,2.87685 -0.047,6.02149 1.7823,8.40422 2.0005,2.85239 5.5882,4.38441 9.0333,4.08406 2.7359,0 5.4719,0 8.2078,0 -0.8409,3.90038 -0.036,8.24905 2.6426,11.28711 2.9472,3.55167 8.1132,5.13989 12.4824,3.93164 5.0783,-1.2666 9.0209,-6.06511 9.2167,-11.30532 0.3245,-5.25462 -3.0998,-10.50838 -8.0988,-12.22002 -3.9639,-1.46353 -8.6659,-0.74823 -11.925,1.97299 -1.2302,0.97308 -2.2489,2.19046 -3.0757,3.51915 -3.9101,-0.0487 -7.8283,0.10512 -11.7329,-0.102 -3.4042,-0.51726 -6.0533,-3.91907 -5.7415,-7.3455 -0.084,-0.7888 -0.019,-1.90074 0.8185,-2.22633 3.5874,-0.0498 7.1889,0.1041 10.7672,-0.0918 0.9712,-0.38506 0.996,-1.56645 0.8985,-2.44297 0,-3.13229 0,-6.26458 0,-9.39687 1.5589,-0.26079 3.1896,0.25287 4.7051,-0.27734 1.0228,-0.72949 0.5651,-2.14944 0.6472,-3.21172 -0.049,-4.65926 0.1238,-9.32733 -0.1319,-13.98042 -0.6238,-4.88521 -4.129,-9.32405 -8.7486,-11.16894 -2.536,-1.0416 -5.202,-1.06495 -7.8937,-0.98268 0.2734,-3.04576 -0.1484,-6.30877 -2.0349,-8.81218 -2.1225,-2.97179 -5.7478,-4.75803 -9.3973,-4.65437 -11.44048,0.0297 -22.88247,0.002 -34.32362,0.0115 -1.03081,-7.35832 -1.91313,-14.72563 -3.08536,-22.06373 -1.30436,-5.55998 -6.18664,-10.15575 -11.72519,-11.16479 -3.3784,-0.5538 -6.81113,-0.1591 -10.21445,-0.28515 -2.09909,0 -4.19818,-1e-5 -6.29726,0 -0.49692,-3.23408 -0.76674,-6.4757 -1.41993,-9.67774 -0.68404,-1.06431 -2.10281,-0.62193 -3.15039,-0.70117 -3.98763,0 -7.97526,0 -11.96289,0 -0.12597,-1.94599 0.16192,-3.91653 -0.15429,-5.8457 -0.62178,-1.13388 -2.08846,-0.74946 -3.14255,-0.80395 -0.89454,0.006 -1.78908,0.0125 -2.68363,0.0188 z m -10.23632,2.81445 c 4.46093,0 8.92187,0 13.38281,0 0,3.48373 0,6.96745 0,10.45117 -4.63737,0 -9.27474,0 -13.91211,0 0,-3.48372 0,-6.96744 0,-10.45117 0.17643,0 0.35286,0 0.5293,0 z m 41.1289,17.00586 c 2.6843,0.0817 5.41008,-0.1953 8.06055,0.32813 4.96954,1.15017 8.98616,5.67557 9.36182,10.79125 0.91889,6.52436 1.78611,13.05581 2.67919,19.58375 -7.33605,0.0286 -14.67605,-0.0686 -22.00952,0.074 -0.78641,0.12671 -2.04993,-0.045 -2.04264,-1.05679 -1.34791,-9.90481 -2.69535,-19.80969 -4.04354,-29.71446 2.66472,0.002 5.32943,0.003 7.99414,-0.006 z m 0.42188,33.51953 c 11.63052,-0.0699 23.12436,5.49641 30.31364,14.63315 6.35901,7.95962 9.42056,18.48783 8.17097,28.61344 -1.15276,9.96524 -6.34357,19.39823 -14.19346,25.65437 -7.5737,6.12426 -17.50587,9.26371 -27.22635,8.47012 -10.00995,-0.74811 -19.65353,-5.55513 -26.22367,-13.15418 -6.59612,-7.52274 -10.14057,-17.65834 -9.52058,-27.65819 0.55578,-10.049 5.19272,-19.81176 12.69806,-26.531 7.0388,-6.38031 16.4668,-10.07922 25.98139,-10.02771 z m 23.51562,0 c 11.19855,0.0177 22.39777,-0.0381 33.59582,0.0344 4.5143,-0.26151 8.6095,3.9421 8.3949,8.42499 0.01,0.72122 -4e-4,1.44244 0,2.16367 -11.63611,0 -23.27217,0 -34.90824,0 -2.14461,-2.28143 -4.51481,-4.34845 -7.07813,-6.14648 -0.2002,-1.49249 -0.4043,-2.98447 -0.60742,-4.47657 0.20183,0 0.40365,0 0.60547,0 z m 10.58594,13.43946 c 12.31776,0.0158 24.63608,-0.0338 36.95348,0.0303 5.7709,-0.14206 11.0685,4.96862 11.1422,10.74055 0.096,3.10918 -0.01,6.2225 0.039,9.33345 0,1.28099 0,2.56198 0,3.84297 -13.5443,0 -27.0886,0 -40.63283,0 -0.23583,-3.12589 -0.63133,-6.25982 -1.37695,-9.27344 3.25753,-0.0936 6.53485,0.14147 9.77929,-0.12661 1.15582,-0.4575 1.05881,-2.47886 -0.25976,-2.62729 -1.31005,-0.21806 -2.64653,0.0321 -3.96797,-0.0723 -2.14088,0 -4.28177,0 -6.42266,0 -1.48379,-4.20974 -3.67403,-8.1509 -6.19299,-11.77396 -0.0264,-0.17083 0.72777,-0.0249 0.93909,-0.0737 z m 7.96484,26.76367 c 11.60547,0 23.21094,0 34.81644,0 0,3.05729 0,6.11458 0,9.17187 -12.2077,0 -24.4154,0 -36.62308,0 0.64225,-3.0448 1.14998,-6.06185 1.31446,-9.17187 0.16406,0 0.32812,0 0.49218,0 z m 53.38674,18.23242 c 4.7857,-0.11432 9.2207,3.96042 9.5098,8.74024 0.4126,4.46372 -2.7462,8.98439 -7.1343,10.01007 -4.0011,1.04042 -8.5843,-0.81461 -10.6063,-4.45069 -2.1461,-3.65622 -1.5146,-8.75112 1.6472,-11.63439 1.7481,-1.68292 4.1529,-2.67246 6.5836,-2.66523 z" />
        <path
           id="path1130"
           style="stroke:none;stroke-width:2.704;stroke-miterlimit:4;stroke-dasharray:none;stroke-opacity:1"
           d="m 1003.6934,-741.98242 c -1.4523,0.0617 -1.7647,2.47551 -0.3067,2.82812 1.0371,0.34454 2.1742,-0.69308 1.7949,-1.75781 -0.1708,-0.64603 -0.7972,-1.17745 -1.4882,-1.07031 z" />
      </g>
    </g>
    <path
       id="path2403"
       style="fill:url(#linearGradient3295);fill-opacity:1;stroke:none;stroke-width:9.62498;stroke-miterlimit:4;stroke-dasharray:none"
       d="m -305.93945,-756.41406 c -0.95948,0.0104 -1.63029,0.84446 -1.79085,1.7438 -0.0278,0.15547 -0.0403,13.01259 -0.0364,13.16804 0.0153,0.61402 0.28645,1.19735 0.88386,1.50856 1.10715,0.71048 2.83697,0.085 3.09674,-1.18918 0.0312,-0.15322 0.0412,-13.01552 0.0263,-13.1863 -0.0232,-1.10359 -1.00785,-2.24307 -2.17968,-2.04492 z m 27.22461,93.0664 c -1.52982,0.15358 -2.24943,1.96596 -1.90235,3.31446 0.0321,15.60806 -0.0292,31.21643 0.0899,46.82422 0.31408,1.70689 3.24263,2.0699 3.76642,0.31611 0.46356,-1.41839 0.0669,-2.93295 0.21425,-4.3919 0.002,-14.86407 0.0482,-29.72846 -0.0783,-44.59218 -0.25701,-0.88053 -1.17276,-1.53201 -2.08984,-1.47071 z m 67.21484,0.0195 c -7.4364,0.32423 -14.18626,6.71861 -14.59486,14.20907 -0.30916,4.07001 0.0255,8.15302 -0.10996,12.22842 0.0281,4.39639 -0.18098,8.83099 0.49974,13.18946 1.1006,5.08094 4.91639,9.62886 9.98047,11.08594 5.0795,1.63577 10.89773,0.7794 15.09185,-2.56491 2.77874,-2.17386 4.64035,-5.55241 5.29487,-9.064 0.61325,-3.19592 0.34308,-6.46886 0.39536,-9.70232 -0.0971,-4.99836 0.16744,-10.06229 -0.16394,-15.01057 -0.0735,-2.05001 -0.58219,-4.07163 -1.56661,-5.87679 -1.75332,-3.43138 -4.96953,-6.22238 -8.45387,-7.54118 -2.01116,-0.79565 -4.1923,-1.03186 -6.37305,-0.95312 z m 1.2207,4.04101 c 5.75787,0.0481 11.12229,5.06842 11.18164,10.89649 0.17919,5.65736 0.0145,11.31825 0.0808,16.97693 -0.0426,2.66224 0.0534,5.39102 -0.67642,7.97486 -1.74556,5.24449 -7.69065,8.64439 -13.09695,7.45596 -4.65242,-0.89877 -8.71264,-4.8776 -9.15327,-9.68402 -0.44971,-3.93513 -0.04,-7.90084 -0.18124,-11.8495 0.0234,-4.35086 -0.20468,-8.73311 0.3825,-13.05588 1.11143,-5.1265 6.27316,-8.8954 11.46289,-8.71484 z m -41.20117,-4.05859 c -1.48133,0.10798 -2.2858,1.85533 -1.91015,3.17578 3.3e-4,15.68359 -0.0584,31.36759 0.082,47.05078 0.41181,1.70226 3.40471,1.92081 3.79686,0.0841 0.38885,-1.50993 0.005,-3.08306 0.15483,-4.61923 -0.0129,-14.7651 0.12757,-29.53626 -0.1256,-44.29727 -0.21879,-0.8574 -1.1352,-1.43706 -1.99797,-1.39413 z m -14.47461,-74.77149 c -2.99414,0.15904 -5.87345,1.27329 -8.23589,3.02662 -2.28501,1.68328 -4.12466,3.95429 -5.20803,6.51926 -1.45181,3.42547 -1.2168,7.17873 -1.20936,10.83367 0.10633,5.7718 -0.2105,11.60007 0.25318,17.31957 0.2222,3.65835 2.01891,7.2052 4.64229,9.76963 0.78553,0.7646 1.89596,1.58123 2.91211,2.10938 5.32971,2.84337 12.31346,2.58051 17.23015,-1.01215 2.43337,-1.75386 4.27252,-4.41477 5.22688,-7.16363 1.39888,-3.8679 0.88317,-8.04152 0.99762,-12.066 -0.002,-5.04986 0.0615,-10.1042 -0.11654,-15.15083 -0.43435,-6.52835 -5.54364,-12.39214 -11.92899,-13.76981 -1.49163,-0.34989 -3.03323,-0.48319 -4.56342,-0.41571 z m 1.03711,4.02539 c 6.04904,-0.087 11.55672,5.35007 11.50977,11.40821 -0.11787,7.60685 0.22107,15.22891 -0.2469,22.82681 -0.98114,5.83803 -7.14713,10.23107 -12.98775,9.16121 -4.69208,-0.67265 -8.98772,-4.45802 -9.60137,-9.26368 -0.65091,-4.03521 -0.0882,-8.13028 -0.27718,-12.19153 0.0429,-4.49813 -0.24793,-9.03443 0.42204,-13.49807 1.32683,-4.86617 6.12901,-8.51525 11.18139,-8.44295 z m 80.48242,-3.91406 c -5.2412,0.29685 -10.43271,3.30011 -12.72916,8.1181 -1.52345,2.95617 -1.92522,6.32945 -1.84039,9.61471 0.0806,6.67333 -0.19321,13.35634 0.19887,20.0224 0.52026,5.16101 3.76235,10.06162 8.55507,12.18324 5.1102,2.3381 11.45286,1.87316 16.10798,-1.36758 3.4564,-2.36381 5.56717,-6.32556 6.13922,-10.423 0.43088,-3.00293 0.19214,-6.05036 0.24958,-9.07326 -0.0429,-5.34418 0.16524,-10.74138 -0.26644,-16.04179 -0.7705,-5.25772 -4.34078,-10.19538 -9.44406,-11.9679 -2.21666,-0.83949 -4.606,-1.17887 -6.97067,-1.06492 z m 1.05274,3.93164 c 6.3565,-0.18306 12.08964,5.86472 11.54687,12.20508 -0.0646,7.37476 0.24023,14.76414 -0.24791,22.1274 -1.04406,5.8465 -7.294,10.19869 -13.14248,9.00751 -4.69517,-0.71128 -8.9114,-4.5838 -9.46015,-9.3926 -0.58291,-4.00115 -0.0765,-8.05185 -0.24574,-12.07473 0.0329,-4.43346 -0.20217,-8.8981 0.38623,-13.30313 1.27033,-4.89391 6.0841,-8.65923 11.16318,-8.56953 z m -40.93555,-4.0625 c -1.513,0.14258 -2.24517,1.93669 -1.87695,3.26953 0.0105,15.66133 -0.0729,31.3292 0.092,46.98629 0.43822,1.7063 3.42509,1.87177 3.801,0.0348 0.32789,-1.39134 0.0285,-2.83824 0.14471,-4.25237 0.007,-14.82461 0.0614,-29.64964 -0.0807,-44.47383 -0.1674,-0.94091 -1.14468,-1.6265 -2.08008,-1.56445 z m -54.32422,-149.55273 c -1.42592,-0.039 -2.25779,1.6089 -1.92214,2.86367 -0.0287,15.7697 -0.12721,31.54264 0.0901,47.31016 0.34553,1.58487 2.80278,1.97505 3.58399,0.52734 0.63442,-1.18794 0.28068,-2.60527 0.32623,-3.89303 0.0273,-15.1254 0.0798,-30.25432 -0.0704,-45.38041 -0.19003,-0.87985 -1.13022,-1.49506 -2.00781,-1.42773 z m 40.12891,0.0879 c -5.64421,0.15431 -11.20226,3.59582 -13.40912,8.86814 -1.48952,3.39628 -1.5922,7.17346 -1.46901,10.82053 0.0517,5.9964 -0.19372,12.05922 0.20989,18.00846 0.48308,5.7352 4.49289,11.12487 10.04684,12.85404 5.68332,1.92886 12.52607,0.63945 16.71208,-3.78833 3.20191,-3.31351 4.35788,-8.06943 4.3072,-12.56584 -0.15536,-6.91811 0.20692,-13.89825 -0.27139,-20.77453 -0.60911,-5.5763 -4.49775,-10.80989 -9.92367,-12.50863 -1.98853,-0.68438 -4.10281,-0.9756 -6.20282,-0.91384 z m 0.70898,3.92773 c 6.00537,-0.12975 11.53417,5.18933 11.58637,11.20608 -0.0877,7.67285 0.21771,15.36093 -0.23783,23.02498 -0.933,5.45916 -6.34639,9.69322 -11.87135,9.28664 -5.01945,-0.23796 -9.8726,-4.03761 -10.6817,-9.10572 -0.6909,-4.12259 -0.13293,-8.31265 -0.31756,-12.4651 0.0334,-4.46471 -0.21434,-8.96221 0.39792,-13.39689 1.26793,-4.89051 6.07087,-8.58149 11.12415,-8.54999 z m 40.79883,-4.00586 c -1.42176,-0.079 -2.32986,1.58157 -1.97461,2.8418 -0.0209,15.77732 -0.10968,31.55546 0.0918,47.33203 0.37255,1.64944 3.17727,1.97596 3.70402,0.26102 0.56648,-1.49622 0.0577,-3.1159 0.22392,-4.66649 -5.3e-4,-14.79062 0.0657,-29.58175 -0.0881,-44.37187 -0.2215,-0.83813 -1.08705,-1.47348 -1.95703,-1.39649 z m -68.58398,74.75781 c -7.44711,0.18536 -14.3385,6.44695 -14.8711,13.94532 -0.34953,4.28646 -0.0116,8.5887 -0.13672,12.88238 -0.007,4.15956 -0.13397,8.29557 0.42578,12.40277 0.93434,5.19883 4.84874,9.97559 10.02469,11.488 4.62708,1.47508 9.83141,0.93628 13.9437,-1.70851 3.90189,-2.43645 6.19096,-6.87161 6.70587,-11.36179 0.273,-2.57484 0.0778,-5.17174 0.14999,-7.75634 0.003,-5.61565 0.11816,-11.24275 -0.23635,-16.84886 -0.32204,-2.2861 -1.3094,-4.59625 -2.68234,-6.4731 -2.61059,-3.64916 -6.80014,-6.17315 -11.30329,-6.50329 -0.67063,-0.068 -1.3466,-0.0771 -2.02023,-0.0666 z m 0.61523,4.05665 c 6.33363,-0.18269 12.05213,5.82149 11.55058,12.13986 -0.0744,7.40477 0.24043,14.82424 -0.25205,22.21792 -1.05094,5.71013 -7.04047,10.00522 -12.79179,9.04076 -4.80163,-0.58503 -9.20042,-4.47194 -9.79793,-9.36559 -0.61915,-3.83382 -0.063,-7.72416 -0.25631,-11.58217 0.0295,-4.61714 -0.21164,-9.26302 0.37043,-13.85397 1.26157,-4.90986 6.08747,-8.68606 11.17707,-8.59681 z m 53.61914,-4.04883 c -2.61314,0.11067 -5.1478,0.94236 -7.3226,2.2867 -4.05522,2.4596 -7.00166,6.80634 -7.39351,11.57689 -0.36853,3.62907 0.0122,7.27904 -0.13375,10.91726 0.006,4.86801 -0.17273,9.73456 0.43112,14.55063 0.86354,4.21045 3.43577,8.02625 7.1967,10.17259 5.70491,3.16366 13.44708,2.60167 18.42874,-1.75176 3.49262,-3.03184 5.14843,-7.71515 5.18907,-12.25958 0.0212,-4.32491 0.004,-8.65109 0.0212,-12.97672 -0.0241,-3.25874 0.0166,-6.53112 -0.30754,-9.77578 -0.94096,-5.65682 -5.44425,-10.50695 -10.85391,-12.11137 -1.69784,-0.513 -3.48664,-0.69012 -5.25547,-0.62886 z m 0.91406,4.03125 c 6.07633,-0.0391 11.58942,5.48904 11.42374,11.5855 -0.10759,7.55224 0.22576,15.11901 -0.24688,22.66122 -0.98455,5.84297 -7.17488,10.24918 -13.0213,9.1311 -4.45749,-0.6615 -8.59314,-4.08168 -9.43822,-8.61104 -0.80666,-3.80501 -0.25518,-7.71207 -0.38462,-11.56444 0.0127,-4.78432 -0.25949,-9.59869 0.34049,-14.3576 0.7379,-3.5728 3.5053,-6.55008 6.81975,-7.95743 1.42138,-0.61237 2.96316,-0.88653 4.50704,-0.88731 z m 40.49024,-4.03711 c -1.41162,0.0796 -2.14691,1.7082 -1.83031,2.95742 -0.0285,15.71782 -0.10271,31.43718 0.0842,47.15391 0.24229,1.75421 3.21445,2.08576 3.72609,0.32042 0.5528,-1.54232 0.031,-3.19857 0.20967,-4.79035 -0.001,-14.7496 0.0689,-29.4998 -0.0959,-44.24882 -0.22469,-0.90065 -1.20884,-1.43739 -2.09375,-1.39258 z M -377.75,-790.47656 c -1.57334,0.15259 -2.41108,2.52099 -1.07932,3.50573 2.31677,2.47119 4.37349,5.2506 5.54758,8.45574 3.54032,8.85342 1.92695,19.73971 -4.57791,26.82617 -0.72783,0.85537 -1.95041,1.80491 -1.60129,3.07369 0.39052,1.36444 2.39475,2.10306 3.36515,0.89276 3.07961,-2.73315 5.22356,-6.3827 6.73928,-10.17414 3.26539,-8.64097 2.4643,-18.72123 -2.37984,-26.62488 -1.31116,-2.1033 -2.84551,-4.13566 -4.81638,-5.66015 -0.35789,-0.21642 -0.77694,-0.34191 -1.19727,-0.29492 z m 14.37695,92.61718 c -1.60364,0.26067 -2.28756,2.90772 -0.69323,3.65606 1.62257,0.90941 3.57728,1.05624 5.12046,2.13837 7.34873,3.98596 11.83252,12.8132 10.35937,21.09725 -0.13156,1.31734 -0.95969,2.83888 0.0307,4.01994 0.94846,1.14301 3.0554,0.72966 3.40729,-0.75341 0.62583,-1.6963 0.69252,-3.60391 0.87475,-5.33822 0.12656,-2.76142 -0.23464,-5.45671 -1.0349,-8.14225 -1.48891,-4.97794 -4.61872,-9.51916 -8.8453,-12.62473 -2.68883,-2.00848 -5.81029,-3.53449 -9.14299,-4.05886 z m 26.11914,-220.93945 c -8.86577,0.17313 -17.87471,4.0616 -23.62785,10.99921 -3.73432,4.38844 -6.05336,9.82976 -7.31204,15.37506 -0.38783,1.36079 -0.40526,2.83 -0.9605,4.1355 -0.59066,0.91993 -1.85359,0.51783 -2.703,0.25246 -4.04932,-1.01723 -8.26278,-1.44542 -12.43372,-1.13918 -2.7637,0.21782 -5.67801,0.76692 -8.3569,1.71283 -12.37178,4.11236 -22.2863,14.86642 -25.08293,27.6398 -0.76743,3.5192 -0.98687,7.05021 -0.69688,10.64542 0.0948,1.60187 0.51379,3.30694 0.6949,4.95532 0.22624,1.80962 -0.89353,3.4796 -2.35303,4.44448 -1.42413,0.93263 -2.93248,1.73673 -4.24494,2.83227 -8.5972,6.48909 -14.62947,16.16448 -17.13005,26.53744 -2.24902,9.27522 -1.8197,19.22029 1.53872,28.25739 1.95144,5.39735 5.15971,10.36205 8.91318,14.7344 0.31565,0.46298 0.93581,0.89416 1.06222,1.37704 -0.99741,2.23025 -3.44254,3.08693 -5.19982,4.57186 -10.646,7.88171 -18.36948,19.69895 -21.00668,32.65764 -1.19403,5.63093 -1.51559,11.54414 -0.91867,17.31321 0.50865,5.01422 1.7232,10.06434 3.59718,14.76056 4.88163,12.35567 14.45884,22.74102 26.31112,28.67922 1.43343,0.55704 2.43925,2.01062 2.35501,3.56081 -0.0147,1.64499 -0.30265,3.27648 -0.21021,4.92537 0.0346,11.02803 3.92688,22.0925 11.05655,30.55388 6.48925,7.74633 15.44456,13.42776 25.2767,15.81957 1.57202,0.47919 2.74681,1.85763 3.09809,3.44746 2.60739,7.69273 7.10796,14.84398 13.43864,20.00501 8.87138,7.35569 21.05227,10.26925 32.27586,8.6653 9.36846,-1.29489 18.39495,-5.66138 24.97764,-12.58049 5.07481,-5.32367 8.43663,-11.96801 10.02813,-19.11345 0.90455,-3.91654 1.13508,-7.85975 1.09253,-11.86515 0.0818,-13.61735 0.0229,-27.23524 0.0404,-40.85282 0.004,-19.59412 -0.009,-39.19288 -0.092,-58.78398 -0.2476,-1.80811 -3.25827,-2.08874 -3.78711,-0.31836 -0.38498,1.6034 -0.0252,3.26325 -0.16314,4.89101 -0.0802,33.39622 0.0581,66.79388 -0.15315,100.18916 -0.73824,11.51002 -7.08477,22.62892 -16.92485,28.74501 -10.90912,7.01116 -25.45955,8.2162 -37.21002,2.58478 -8.04087,-3.80507 -14.37493,-10.70569 -18.18033,-18.68053 -0.79786,-1.56251 -1.61973,-3.11251 -2.43687,-4.66498 5.85877,-0.28958 11.77993,-0.27986 17.42773,-1.87304 0.88524,-0.17473 1.72043,-0.79245 1.75977,-1.76368 0.19841,-1.1384 -0.70433,-2.3051 -1.89258,-2.24609 -1.50866,0.0296 -2.90564,0.73708 -4.40803,0.86033 -12.91512,2.27053 -26.79596,-1.57979 -36.57605,-10.34904 -8.69826,-7.68568 -13.99408,-18.98994 -14.54754,-30.56575 -0.10896,-2.0099 -0.10159,-4.0367 -0.15889,-6.04057 0.0205,-0.89984 1.00306,-1.56621 1.83138,-1.14979 8.5535,2.42314 17.71363,3.28851 26.53043,1.64571 1.8237,-0.35627 3.70769,-0.66242 5.41443,-1.39136 1.16753,-0.94847 0.83225,-3.30001 -0.7913,-3.50135 -1.61886,-0.25531 -3.11781,0.65631 -4.71131,0.78658 -17.08494,3.30716 -35.74826,-2.77437 -47.38596,-15.76498 -9.59184,-10.60033 -14.14754,-25.3911 -12.70698,-39.56657 1.12863,-11.73819 6.30603,-23.16152 14.87687,-31.33687 6.3183,-6.13407 14.29676,-10.42909 22.74966,-12.80109 1.44388,-0.517 1.69043,-2.74697 0.35204,-3.53423 -1.24926,-0.77616 -2.64813,0.0828 -3.89697,0.39339 -2.1885,0.72281 -4.31522,1.53256 -6.49756,2.31754 -10.12715,-9.38332 -15.07187,-23.88705 -13.09243,-37.51659 1.60748,-12.07348 8.40058,-23.46975 18.58582,-30.23826 1.30625,-0.89638 2.58486,-1.74877 3.87575,-2.66507 3.44543,6.85747 8.34087,13.2058 14.97656,17.22656 0.86184,0.48098 1.84083,1.28708 2.85742,0.70118 1.08925,-0.46199 1.67826,-1.93822 0.86719,-2.90821 -1.00352,-1.27899 -2.66798,-1.73751 -3.86043,-2.80648 -10.08688,-7.3909 -15.33542,-20.86426 -12.69426,-33.11735 2.55103,-12.20308 12.48225,-22.50604 24.59109,-25.48453 8.52225,-2.16608 17.89503,-0.66077 25.30108,4.08598 4.76787,2.96946 8.69317,7.19066 11.5551,12.00207 1.18354,1.15953 3.71218,0.0839 3.34545,-1.65371 -0.27613,-1.61392 -1.54867,-2.77709 -2.36061,-4.13323 -3.48756,-4.84972 -8.23354,-8.69752 -13.46531,-11.53142 0.25082,-7.30006 2.55391,-14.75651 7.51755,-20.24546 7.11894,-7.93912 18.93272,-10.90776 29.09475,-8.00784 9.56152,2.55421 17.41421,10.67338 19.51265,20.3627 1.40014,6.07741 0.80233,12.35388 0.90834,18.53084 0.0148,30.10893 -0.0389,60.22077 0.0848,90.32784 0.30309,1.67468 3.08046,2.07272 3.71491,0.42553 0.53608,-1.31727 0.11841,-2.77357 0.25119,-4.15142 0.003,-32.56946 0.0618,-65.13935 -0.0851,-97.70847 0.0696,-2.98386 -0.29195,-6.0008 -1.03325,-8.8629 -1.37162,-5.37504 -3.97965,-10.37552 -7.88621,-14.36975 -6.349,-6.48477 -15.45481,-9.85547 -24.50347,-9.65068 z m -32.25976,71.4336 c -1.52124,0.17226 -2.45994,2.37102 -1.19989,3.42301 2.04712,2.45413 4.80147,4.10275 7.5953,5.62684 3.70411,1.85537 7.90215,2.87069 11.92328,3.05711 2.21822,0.0992 4.36052,-0.005 6.47614,-0.34749 5.97406,-0.95791 11.76678,-3.67839 15.95712,-8.09541 0.5954,-0.60882 1.09866,-1.48998 0.65964,-2.33597 -0.46154,-1.27394 -2.285,-1.76753 -3.24167,-0.73825 -3.28345,3.17342 -7.30911,5.68258 -11.79361,6.71142 -8.43908,2.1448 -18.02708,-0.0717 -24.27784,-6.2467 -0.57678,-0.5289 -1.25723,-1.1349 -2.09847,-1.05456 z" />
    <rect
       style="fill:none;stroke:#000000;stroke-width:2.13887;stroke-miterlimit:4;stroke-dasharray:8.55548, 17.111;stroke-dashoffset:0"
       id="rect3582"
       width="430.9436"
       height="451.00473"
       x="57.740635"
       y="-980.94733"
       ry="215.4718" />
    <text
       xml:space="preserve"
       style="font-size:46.8457px;line-height:1.25;font-family:Comfortaa;-inkscape-font-specification:Comfortaa;text-align:center;text-anchor:middle;fill:#000000;stroke-width:1.17114"
       x="-313.70331"
       y="-1005.4611"
       id="text4424"><tspan
         sodipodi:role="line"
         id="tspan4422"
         style="font-style:normal;font-variant:normal;font-weight:300;font-stretch:normal;font-family:Roboto;-inkscape-font-specification:'Roboto Light';stroke-width:1.17114"
         x="-313.70331"
         y="-1005.4611">Cerebral activity</tspan></text>
    <text
       xml:space="preserve"
       style="font-size:46.8457px;line-height:1.25;font-family:Comfortaa;-inkscape-font-specification:Comfortaa;text-align:center;text-anchor:middle;fill:#000000;stroke-width:1.17114"
       x="882.88232"
       y="-1000.6919"
       id="text11936"><tspan
         sodipodi:role="line"
         id="tspan11934"
         style="font-style:normal;font-variant:normal;font-weight:300;font-stretch:normal;font-family:Roboto;-inkscape-font-specification:'Roboto Light';stroke-width:1.17114"
         x="882.88232"
         y="-1000.6919">External devices</tspan></text>
    <text
       xml:space="preserve"
       style="font-size:46.8457px;line-height:1.25;font-family:Comfortaa;-inkscape-font-specification:Comfortaa;text-align:center;text-anchor:middle;fill:#000000;stroke-width:1.17114"
       x="272.819"
       y="-1006.1473"
       id="text14412"><tspan
         sodipodi:role="line"
         id="tspan14410"
         style="font-style:normal;font-variant:normal;font-weight:300;font-stretch:normal;font-family:Roboto;-inkscape-font-specification:'Roboto Light';stroke-width:1.17114"
         x="272.819"
         y="-1006.1473">BCI system</tspan></text>
    <g
       id="g4320"
       transform="matrix(0,-0.13952787,0.13952787,0,175.53943,-601.94127)"
       style="stroke:none;stroke-width:26.1525;stroke-miterlimit:4;stroke-dasharray:none">
      <g
         id="g4208"
         style="stroke:none;stroke-width:26.1525;stroke-miterlimit:4;stroke-dasharray:none" />
      <g
         id="g4234"
         style="stroke:none;stroke-width:26.1525;stroke-miterlimit:4;stroke-dasharray:none" />
      <g
         id="g4236"
         style="stroke:none;stroke-width:26.1525;stroke-miterlimit:4;stroke-dasharray:none" />
      <g
         id="g4238"
         style="stroke:none;stroke-width:26.1525;stroke-miterlimit:4;stroke-dasharray:none" />
      <g
         id="g4240"
         style="stroke:none;stroke-width:26.1525;stroke-miterlimit:4;stroke-dasharray:none" />
      <g
         id="g4242"
         style="stroke:none;stroke-width:26.1525;stroke-miterlimit:4;stroke-dasharray:none" />
      <g
         id="g4244"
         style="stroke:none;stroke-width:26.1525;stroke-miterlimit:4;stroke-dasharray:none" />
      <g
         id="g4246"
         style="stroke:none;stroke-width:26.1525;stroke-miterlimit:4;stroke-dasharray:none" />
      <g
         id="g4248"
         style="stroke:none;stroke-width:26.1525;stroke-miterlimit:4;stroke-dasharray:none" />
      <g
         id="g4250"
         style="stroke:none;stroke-width:26.1525;stroke-miterlimit:4;stroke-dasharray:none" />
      <g
         id="g4252"
         style="stroke:none;stroke-width:26.1525;stroke-miterlimit:4;stroke-dasharray:none" />
      <g
         id="g4254"
         style="stroke:none;stroke-width:26.1525;stroke-miterlimit:4;stroke-dasharray:none" />
      <g
         id="g4256"
         style="stroke:none;stroke-width:26.1525;stroke-miterlimit:4;stroke-dasharray:none" />
      <g
         id="g4258"
         style="stroke:none;stroke-width:26.1525;stroke-miterlimit:4;stroke-dasharray:none" />
      <g
         id="g4260"
         style="stroke:none;stroke-width:26.1525;stroke-miterlimit:4;stroke-dasharray:none" />
      <g
         id="g4262"
         style="stroke:none;stroke-width:26.1525;stroke-miterlimit:4;stroke-dasharray:none" />
    </g>
    <g
       id="g5003"
       style="stroke:none;stroke-width:9.36843;stroke-miterlimit:4;stroke-dasharray:none"
       transform="matrix(0.28649415,0,0,0.28649415,276.37894,-699.21984)" />
    <g
       id="g5005"
       style="stroke:none;stroke-width:9.36843;stroke-miterlimit:4;stroke-dasharray:none"
       transform="matrix(0.28649415,0,0,0.28649415,276.37894,-699.21984)" />
    <g
       id="g5007"
       style="stroke:none;stroke-width:9.36843;stroke-miterlimit:4;stroke-dasharray:none"
       transform="matrix(0.28649415,0,0,0.28649415,276.37894,-699.21984)" />
    <g
       id="g5009"
       style="stroke:none;stroke-width:9.36843;stroke-miterlimit:4;stroke-dasharray:none"
       transform="matrix(0.28649415,0,0,0.28649415,276.37894,-699.21984)" />
    <g
       id="g5011"
       style="stroke:none;stroke-width:9.36843;stroke-miterlimit:4;stroke-dasharray:none"
       transform="matrix(0.28649415,0,0,0.28649415,276.37894,-699.21984)" />
    <g
       id="g5013"
       style="stroke:none;stroke-width:9.36843;stroke-miterlimit:4;stroke-dasharray:none"
       transform="matrix(0.28649415,0,0,0.28649415,276.37894,-699.21984)" />
    <g
       id="g5015"
       style="stroke:none;stroke-width:9.36843;stroke-miterlimit:4;stroke-dasharray:none"
       transform="matrix(0.28649415,0,0,0.28649415,276.37894,-699.21984)" />
    <g
       id="g5017"
       style="stroke:none;stroke-width:9.36843;stroke-miterlimit:4;stroke-dasharray:none"
       transform="matrix(0.28649415,0,0,0.28649415,276.37894,-699.21984)" />
    <g
       id="g5019"
       style="stroke:none;stroke-width:9.36843;stroke-miterlimit:4;stroke-dasharray:none"
       transform="matrix(0.28649415,0,0,0.28649415,276.37894,-699.21984)" />
    <g
       id="g5021"
       style="stroke:none;stroke-width:9.36843;stroke-miterlimit:4;stroke-dasharray:none"
       transform="matrix(0.28649415,0,0,0.28649415,276.37894,-699.21984)" />
    <g
       id="g5023"
       style="stroke:none;stroke-width:9.36843;stroke-miterlimit:4;stroke-dasharray:none"
       transform="matrix(0.28649415,0,0,0.28649415,276.37894,-699.21984)" />
    <g
       id="g5025"
       style="stroke:none;stroke-width:9.36843;stroke-miterlimit:4;stroke-dasharray:none"
       transform="matrix(0.28649415,0,0,0.28649415,276.37894,-699.21984)" />
    <g
       id="g5027"
       style="stroke:none;stroke-width:9.36843;stroke-miterlimit:4;stroke-dasharray:none"
       transform="matrix(0.28649415,0,0,0.28649415,276.37894,-699.21984)" />
    <g
       id="g5029"
       style="stroke:none;stroke-width:9.36843;stroke-miterlimit:4;stroke-dasharray:none"
       transform="matrix(0.28649415,0,0,0.28649415,276.37894,-699.21984)" />
    <g
       id="g5031"
       style="stroke:none;stroke-width:9.36843;stroke-miterlimit:4;stroke-dasharray:none"
       transform="matrix(0.28649415,0,0,0.28649415,276.37894,-699.21984)" />
    <g
       id="g4245"
       transform="translate(-3.2364709)">
      <path
         id="path4147"
         style="stroke:none;stroke-width:3.649;stroke-miterlimit:4;stroke-dasharray:none"
         d="m 239.08008,-944.87109 c -11.35328,0.0567 -22.70728,-0.0233 -34.06055,0.0723 -1.06237,0.28896 -1.08341,1.61085 -0.9707,2.49883 0.0123,6.6384 -0.0473,13.2774 0.0644,19.91523 0.4671,1.08948 1.82526,0.89067 2.78672,0.85743 4.80938,0 9.61875,0 14.42812,0 0,4.51432 0,9.02864 0,13.54296 -5.46156,0.0178 -10.92381,-0.0469 -16.38476,0.0586 -1.08619,0.39318 -0.94646,1.75057 -0.89453,2.68086 0,2.54193 0,5.08385 0,7.62578 -13.69142,0.002 -27.38293,-0.0268 -41.07422,0.0469 -1.062,0.29105 -1.08333,1.6122 -0.96875,2.50079 0,8.4776 0,16.9552 0,25.43281 -3.59489,0.0429 -7.19413,-0.11471 -10.78516,0.10937 -1.08173,0.65735 -0.67987,2.10483 -0.73608,3.15703 0.0126,7.16446 -0.0452,14.32942 0.0662,21.49336 0.45619,1.08891 1.81726,0.89453 2.775,0.86161 7.30872,-0.004 14.61796,0.0438 21.92617,-0.0647 1.09189,-0.46539 0.88841,-1.82393 0.85547,-2.78477 0,-2.8901 0,-5.78021 0,-8.67031 10.03125,0 20.0625,0 30.09375,0 5.27109,5.24777 10.49198,10.54634 15.8125,15.74609 1.04052,0.4787 1.91631,-0.54554 2.52669,-1.24913 5.05757,-5.06533 10.15224,-10.09434 15.13542,-15.23329 0.45024,-1.07489 -0.63747,-1.90056 -1.33161,-2.5368 -4.81037,-4.81357 -9.62327,-9.62462 -14.43206,-14.43976 0,-3.80534 0,-7.61068 0,-11.41602 5.46156,-0.0178 10.92381,0.0469 16.38477,-0.0586 1.08771,-0.39917 0.94568,-1.75183 0.89453,-2.68281 -0.012,-6.57317 0.047,-13.14693 -0.0645,-19.71953 -0.46007,-1.08668 -1.81805,-0.88741 -2.775,-0.85743 -4.81328,0 -9.62656,0 -14.43984,0 0,-4.51432 0,-9.02864 0,-13.54296 5.46156,-0.0178 10.92381,0.0469 16.38477,-0.0586 1.08624,-0.39435 0.94494,-1.75158 0.8947,-2.68281 -7.7e-4,-6.57126 0.0325,-13.14284 -0.0607,-19.71367 -0.30421,-0.80439 -1.29446,-0.98313 -2.05078,-0.88867 z m -31.91797,2.60937 c 10.48177,0 20.96354,0 31.44531,0 0,6.05013 0,12.10026 0,18.15039 -10.6582,0 -21.3164,0 -31.97461,0 0,-6.05013 0,-12.10026 0,-18.15039 0.17643,0 0.35287,0 0.5293,0 z m 0,36.86133 c 10.48177,0 20.96354,0 31.44531,0 0,6.05013 0,12.10026 0,18.15039 -10.6582,0 -21.3164,0 -31.97461,0 0,-6.05013 0,-12.10026 0,-18.15039 0.17643,0 0.35287,0 0.5293,0 z m -42.04297,10.36523 c 12.97461,0 25.94922,0 38.92383,0 0.0899,3.23087 -0.15718,6.53201 0.15234,9.70313 0.73425,1.03559 2.17376,0.59029 3.24766,0.67259 4.62838,-0.009 9.25677,-0.009 13.88515,-0.007 10e-6,3.80534 0,7.61068 0,11.41602 -5.04133,5.04459 -10.08431,10.08757 -15.1289,15.12891 -10.03125,0 -20.0625,0 -30.09375,0 -0.0364,-3.59296 0.10413,-7.1898 -0.10547,-10.7793 -0.65156,-1.09433 -2.10692,-0.68313 -3.16094,-0.74023 -2.74974,0 -5.49948,0 -8.24922,0 0,-8.46485 0,-16.92969 0,-25.39454 0.17644,0 0.35287,0 0.5293,0 z m 57.87305,24.52735 c 4.55955,4.55958 9.12185,9.11643 13.67969,13.67773 -4.68262,4.68587 -9.36687,9.37012 -14.05274,14.05274 -4.68522,-4.68197 -9.36882,-9.36557 -14.05078,-14.05078 4.68144,-4.68574 9.36413,-9.37025 14.04883,-14.05274 0.125,0.12435 0.25,0.2487 0.375,0.37305 z m -69.39258,3.45117 c 6.64193,0 13.28385,0 19.92578,0 0,6.81836 0,13.63672 0,20.45508 -6.81836,0 -13.63672,0 -20.45508,0 0,-6.81836 0,-13.63672 0,-20.45508 0.17643,0 0.35287,0 0.5293,0 z" />
      <g
         id="g4149">
        <path
           id="path4145"
           style="stroke:none;stroke-width:3.649;stroke-miterlimit:4;stroke-dasharray:none"
           d="m 280.12109,-858.14844 c -5.376,0.0781 -10.75331,-0.0344 -16.1289,0.0859 -1.18492,0.34816 -1.07484,2.51286 0.28853,2.46352 1.69861,0.18011 3.41096,-0.0314 5.11537,0.0619 3.43503,0 6.87006,0 10.30508,0 0,3.0013 0,6.0026 0,9.00391 -2.07201,0.62731 -3.21821,2.60483 -4.16539,4.39809 -2.69527,4.78288 -5.56662,9.42856 -8.10383,14.27903 -0.984,2.94966 1.51481,6.55982 4.69791,6.38131 2.3577,0.0999 4.73851,-0.0377 7.08303,0.049 0.82845,0.3233 0.37645,1.32572 0.48828,1.98711 0,2.30963 0,4.61927 0,6.9289 -14.73502,0 -29.47005,0 -44.20508,0 0.1245,-3.39545 -1.10668,-6.85777 -3.27649,-9.33362 -2.50122,-2.96334 -6.49673,-4.59797 -10.4026,-4.30808 -3.83336,0.20334 -7.51559,2.23039 -9.68419,5.40733 -1.18156,1.67113 -2.01273,3.90475 -2.23633,5.9375 -0.42258,3.1266 0.5088,6.54238 2.5105,9.11413 2.52559,3.3724 6.76205,5.40056 10.98285,5.09639 1.77541,-0.11043 3.37935,-0.56927 5.00665,-1.37849 2.39758,-1.22122 4.39359,-3.17635 5.59357,-5.53325 0.42571,-0.76704 0.72174,-1.59416 1.01581,-2.41792 15.43686,-0.002 30.8738,0.0264 46.31055,-0.0469 1.0608,-0.28957 1.07715,-1.60934 0.96679,-2.49687 0,-2.98932 0,-5.97865 0,-8.96797 3.05341,-0.13315 6.14425,0.26373 9.16894,-0.27621 2.84494,-0.94887 4.29986,-4.82094 2.5268,-7.31872 -2.70195,-4.70554 -5.37407,-9.42379 -8.14126,-14.09343 -0.71739,-1.11469 -1.34717,-2.4004 -2.62739,-2.96662 -0.42194,-0.27123 -1.14346,-0.33668 -0.92723,-0.99619 -0.0448,-3.43949 0.13068,-6.90007 -0.12681,-10.32539 -0.38797,-0.71324 -1.31948,-0.77279 -2.03516,-0.73438 z m 1.00196,14.13282 c 1.51554,0.0785 2.22205,1.59792 2.83211,2.76517 2.72617,4.76585 5.58166,9.47373 8.15422,14.31686 0.45456,1.74998 -1.48187,3.3554 -3.14688,2.90636 -5.81352,-0.0212 -11.6392,0.087 -17.44492,-0.10168 -1.76668,-0.45834 -2.20145,-2.96438 -0.9657,-4.18625 2.9242,-5.02196 5.74023,-10.11403 8.80164,-15.04812 0.4615,-0.45937 1.12788,-0.66851 1.76953,-0.65234 z m -58.50977,20.39843 c 5.45511,-0.13946 10.44631,4.83855 10.24325,10.30857 -0.0289,4.59468 -3.452,9.01695 -8.01478,9.90034 -4.58744,1.06217 -9.78743,-1.45017 -11.57174,-5.85956 -1.66196,-3.73495 -0.88967,-8.47122 2.10519,-11.31442 1.89584,-1.89652 4.5471,-3.04844 7.23808,-3.03493 z" />
        <path
           id="path4149"
           style="stroke:none;stroke-width:3.649;stroke-miterlimit:4;stroke-dasharray:none"
           d="m 248.28823,-858.12305 c 0.38011,0 -0.66233,0.27045 -0.8368,0.569 -0.42351,0.72472 -0.21205,1.88549 0.7757,1.98568 0.23404,0.0489 5.92235,0.0237 6.13097,-0.0548 0.7408,-0.27873 1.21251,-1.22995 0.64239,-1.92571 -0.11182,-0.16919 -0.25985,-0.30706 -0.42943,-0.40641 -0.24463,-0.14331 -6.5732,-0.16781 -6.28284,-0.16781 z"
           sodipodi:nodetypes="sscscsss" />
        <path
           id="path4931"
           style="stroke:none;stroke-width:2.684;stroke-miterlimit:4;stroke-dasharray:none"
           d="m 356.19336,-627.14844 c -6.48025,0.0186 -12.96561,-0.0333 -19.44271,0.0317 -1.0701,0.0514 -1.27295,1.32544 -1.14103,2.17251 0.0237,3.03829 -0.006,6.08155 0.006,9.12197 -6.49255,1.53726 -12.77181,4.12834 -18.46318,7.61545 -0.47764,0.16995 -0.82374,-0.71211 -1.24994,-0.95795 -2.12733,-2.0886 -4.17509,-4.27266 -6.36891,-6.28445 -0.82957,-0.39722 -1.63658,0.25061 -2.11068,0.88389 -5.90796,5.9313 -11.88831,11.80359 -17.72409,17.79864 -0.43801,0.92077 0.38783,1.73771 1.0414,2.26833 2.10465,2.10653 4.21177,4.21059 6.31486,6.31867 -3.36719,5.46934 -5.94765,11.50794 -7.49843,17.74733 -0.072,0.60434 -0.22703,1.10815 -0.93634,0.89789 -3.29819,0.0508 -6.61555,-0.12171 -9.90117,0.10869 -1.04811,0.52526 -0.7054,1.8499 -0.74364,2.79219 0.0336,3.89635 -0.0997,7.80687 0.0796,11.69414 0.44553,1.02794 1.71586,0.80962 2.61758,0.80089 13.27283,-0.0141 26.55074,0.0462 39.82037,-0.0468 0.94185,-0.25912 1.03872,-1.37551 0.95267,-2.18479 0.23768,-9.76714 6.02678,-19.15036 14.60666,-23.80731 7.81929,-4.34796 17.73996,-4.69954 25.79712,-0.76852 7.94393,3.78501 13.99406,11.41748 15.58826,20.10362 0.39857,1.94413 0.49952,3.93664 0.6232,5.90681 0.40266,0.95398 1.56806,0.83908 2.41406,0.79697 13.34706,-0.0148 26.69969,0.0476 40.04324,-0.0477 0.95315,-0.28215 1.03886,-1.42966 0.92104,-2.25434 -0.0453,-4.10154 0.0998,-8.2166 -0.0893,-12.30938 -0.48046,-1.04837 -1.78526,-0.77345 -2.71172,-0.78516 -2.85651,0 -5.71302,0 -8.56953,0 -1.54772,-6.57498 -4.19804,-12.92389 -7.72266,-18.64453 2.44549,-2.53189 5.06949,-4.90641 7.39844,-7.54101 0.37629,-1.02648 -0.64329,-1.74605 -1.27964,-2.36381 -5.81892,-5.79352 -11.57887,-11.65472 -17.47036,-17.36861 -0.91231,-0.42592 -1.71273,0.3895 -2.24,1.03271 -2.10941,2.10763 -4.21918,4.2149 -6.32836,6.32275 -5.71378,-3.52919 -12.09714,-6.17802 -18.63867,-7.72461 -0.0712,-3.51755 0.11114,-7.04679 -0.10352,-10.55664 -0.54928,-1.1094 -1.95959,-0.72823 -2.9492,-0.78715 -1.51368,0.006 -3.02735,0.0118 -4.54103,0.0176 z m -17.49414,2.55274 c 7.50911,0 15.01823,0 22.52734,0 0.0624,3.43845 -0.11089,6.89326 0.10244,10.32126 0.5562,1.03272 1.9437,0.86186 2.90682,1.21361 6.3852,1.56741 12.43538,4.33296 17.98488,7.82841 1.16001,0.28622 1.81932,-0.97251 2.56424,-1.61286 1.88446,-1.88267 3.76658,-3.7677 5.65256,-5.64886 5.43782,5.43001 10.8724,10.86328 16.30859,16.29492 -2.3912,2.4706 -4.94655,4.79989 -7.22851,7.36524 -0.34307,1.1256 0.75446,1.99242 1.19196,2.92225 3.42183,5.63327 5.73589,11.88882 7.20804,18.29518 0.70153,1.02357 2.1037,0.53187 3.13711,0.63413 2.61067,0 5.22135,0 7.83203,0 0,3.43034 0,6.86068 0,10.29101 -12.78255,0 -25.56511,0 -38.34766,0 -0.29966,-5.72813 -2.15576,-11.40259 -5.44334,-16.17281 -3.13521,-4.56518 -7.51723,-8.26069 -12.5547,-10.56547 -1.84645,-0.84145 -3.95034,-1.58514 -6.00524,-2.04779 -6.88967,-1.59554 -14.4348,-0.68456 -20.77814,2.58252 -8.47421,4.24765 -14.7388,12.61402 -16.38208,21.95535 -0.27322,1.40209 -0.39343,2.82728 -0.52204,4.2482 -12.77735,0 -25.55469,0 -38.33204,0 7.9e-4,-3.42903 0.003,-6.85807 0.004,-10.28711 3.45044,-0.0619 6.91771,0.10978 10.35742,-0.10156 0.92205,-0.49247 0.85261,-1.66427 1.11272,-2.51352 1.54876,-6.54151 4.37393,-12.73273 7.93806,-18.41031 0.24579,-1.19149 -1.05224,-1.82762 -1.6971,-2.60382 -1.86048,-1.86278 -3.72314,-3.72339 -5.58219,-5.58758 5.43429,-5.43485 10.87105,-10.86724 16.30859,-16.29883 2.47225,2.39145 4.79649,4.95332 7.36914,7.23047 1.12154,0.32219 1.98196,-0.75858 2.9115,-1.19815 5.62569,-3.41807 11.87322,-5.73378 18.27256,-7.20026 1.02425,-0.6526 0.56722,-2.03672 0.65383,-3.04065 0,-2.63099 0,-5.26198 0,-7.89297 0.17643,0 0.35287,0 0.5293,0 z" />
        <path
           id="path4937"
           style="stroke:none;stroke-width:2.684;stroke-miterlimit:4;stroke-dasharray:none"
           d="m 307.19336,-697.61133 c -1.0437,0.0992 -1.31676,1.33766 -1.14655,2.19805 0.015,7.82854 -0.0479,15.6628 0.0479,23.48772 0.27203,1.16069 2.25265,1.23531 2.43263,-0.0315 0.22462,-1.20987 -0.0319,-2.45143 0.0745,-3.67461 -0.0141,-7.02497 0.0477,-14.05662 -0.0549,-21.07734 -0.17219,-0.55703 -0.76878,-0.97035 -1.35352,-0.90235 z" />
        <path
           id="path4943"
           style="stroke:none;stroke-width:2.684;stroke-miterlimit:4;stroke-dasharray:none"
           d="m 349.60742,-697.61133 c -1.04571,0.0997 -1.31864,1.33528 -1.14655,2.19805 0.0154,7.82845 -0.0487,15.66298 0.0485,23.48759 0.27094,1.16785 2.27039,1.232 2.43592,-0.0489 0.21192,-1.205 -0.0348,-2.43818 0.0685,-3.65508 -0.0153,-7.02823 0.0441,-14.06311 -0.0548,-21.08711 -0.18,-0.55062 -0.76682,-0.96531 -1.35156,-0.89453 z" />
        <path
           id="path4949"
           style="stroke:none;stroke-width:2.684;stroke-miterlimit:4;stroke-dasharray:none"
           d="m 285.64844,-697.60352 c -3.93926,0.15465 -7.45947,3.56718 -7.64349,7.52558 -0.0902,2.97463 -0.003,5.9561 -0.0376,8.9334 -0.0357,2.04076 -0.058,4.21116 1.05685,6.0125 1.83729,3.30348 6.13127,5.02356 9.70703,3.69333 3.04229,-1.02884 5.38642,-3.94048 5.49989,-7.18633 0.11582,-2.86791 -0.0448,-5.74137 0.0508,-8.6115 0.008,-2.23948 0.07,-4.6704 -1.28188,-6.58768 -1.57438,-2.45194 -4.41958,-3.98626 -7.35156,-3.7793 z m 0.45898,2.54102 c 3.16437,-0.0987 5.94611,2.96953 5.60735,6.10391 -0.0377,3.61549 0.0972,7.23959 -0.0959,10.84946 -0.52426,3.27524 -4.38935,5.47951 -7.46851,4.20483 -2.45501,-0.89726 -3.9616,-3.62321 -3.63041,-6.18242 0.0478,-3.4817 -0.11266,-6.97414 0.10798,-10.44865 0.45273,-2.55274 2.88683,-4.56266 5.47946,-4.52713 z" />
        <path
           id="path4955"
           style="stroke:none;stroke-width:2.684;stroke-miterlimit:4;stroke-dasharray:none"
           d="m 328.08398,-697.60352 c -4.21237,0.12135 -7.93711,4.08351 -7.68887,8.32968 -0.0115,3.48426 -0.0325,6.97024 0.001,10.45353 0.0583,2.31313 1.18937,4.52979 2.99405,5.96756 2.66344,2.2955 6.85238,2.48034 9.70713,0.42502 1.8486,-1.25918 3.23157,-3.27558 3.48546,-5.56836 0.24981,-2.91052 -0.006,-5.83498 0.1,-8.75153 0.0283,-2.41864 0.1662,-5.07213 -1.3122,-7.14237 -1.56531,-2.38315 -4.41245,-3.93835 -7.28694,-3.71353 z m 0.43946,2.54102 c 3.20699,-0.0998 5.98428,3.039 5.60503,6.20391 -0.0524,3.61691 0.1229,7.24513 -0.11806,10.85442 -0.58387,3.23947 -4.4429,5.37963 -7.4888,4.07875 -2.43583,-0.9066 -3.91897,-3.61955 -3.58772,-6.16325 0.044,-3.485 -0.11065,-6.98083 0.11366,-10.45849 0.44689,-2.54795 2.89291,-4.55267 5.47589,-4.51534 z" />
        <path
           id="path4961"
           style="stroke:none;stroke-width:2.684;stroke-miterlimit:4;stroke-dasharray:none"
           d="m 377.6543,-663.81641 c -1.04302,0.0993 -1.31885,1.33761 -1.14457,2.1961 0.0142,7.8278 -0.04,15.66164 0.0465,23.48564 0.26535,1.16662 2.2525,1.239 2.43202,-0.0274 0.22727,-1.2099 -0.0331,-2.45131 0.0745,-3.67461 -0.0103,-7.02201 0.04,-14.04833 -0.0491,-21.06758 -0.17469,-0.56008 -0.76873,-0.98106 -1.35937,-0.91211 z" />
        <path
           id="path4967"
           style="stroke:none;stroke-width:2.684;stroke-miterlimit:4;stroke-dasharray:none"
           d="m 420.06836,-663.81641 c -1.04295,0.0992 -1.31888,1.33766 -1.1446,2.1961 0.015,7.82919 -0.0479,15.6641 0.0479,23.48967 0.26948,1.16231 2.25115,1.23346 2.43068,-0.0315 0.22462,-1.20987 -0.0319,-2.45143 0.0745,-3.67461 -0.0128,-7.02446 0.0451,-14.0545 -0.053,-21.07539 -0.17248,-0.55529 -0.77084,-0.974 -1.35547,-0.9043 z" />
        <path
           id="path4973"
           style="stroke:none;stroke-width:2.684;stroke-miterlimit:4;stroke-dasharray:none"
           d="m 363.32227,-663.81641 c -1.04257,0.0996 -1.31897,1.33776 -1.14457,2.1961 0.0142,7.8278 -0.04,15.66164 0.0465,23.48564 0.26535,1.16662 2.2525,1.239 2.43202,-0.0274 0.22727,-1.2099 -0.0331,-2.45131 0.0745,-3.67461 -0.0103,-7.02201 0.04,-14.04833 -0.0491,-21.06758 -0.1747,-0.56008 -0.76874,-0.98106 -1.35937,-0.91211 z" />
        <path
           id="path4979"
           style="stroke:none;stroke-width:2.684;stroke-miterlimit:4;stroke-dasharray:none"
           d="m 341.82227,-663.80859 c -3.97931,0.14512 -7.51656,3.62496 -7.65942,7.61928 -0.11594,2.72559 0.0454,5.45572 -0.0384,8.18332 -0.0256,2.38861 -0.14483,5.00768 1.3031,7.05439 1.745,2.71848 5.20218,4.28465 8.35405,3.61351 3.65877,-0.67755 6.68515,-4.08166 6.62513,-7.85588 0.0759,-3.07961 -0.0413,-6.16143 0.0373,-9.24196 0.0298,-2.01928 -0.18646,-4.15342 -1.43834,-5.82117 -1.58988,-2.32067 -4.35857,-3.74523 -7.18349,-3.55149 z m 0.44921,2.54101 c 3.20852,-0.10219 5.98658,3.04027 5.60504,6.20586 -0.051,3.62014 0.12136,7.25181 -0.12237,10.86412 -0.59397,3.32788 -4.66479,5.46356 -7.72417,3.96752 -2.30395,-0.98571 -3.65609,-3.60582 -3.34789,-6.05976 0.0477,-3.48239 -0.11261,-6.97543 0.10798,-10.45061 0.45232,-2.55057 2.88939,-4.56746 5.48141,-4.52713 z" />
        <path
           id="path4985"
           style="stroke:none;stroke-width:2.684;stroke-miterlimit:4;stroke-dasharray:none"
           d="m 398.54492,-663.80859 c -3.98265,0.13993 -7.52721,3.62117 -7.66918,7.61928 -0.11596,2.72428 0.0454,5.45311 -0.0384,8.17941 -0.0261,2.4075 -0.14411,5.04416 1.33181,7.09928 1.8234,2.79468 5.42645,4.34034 8.68918,3.49013 1.987,-0.49305 3.72524,-1.70398 4.91509,-3.41349 1.55006,-2.12038 1.40936,-4.8573 1.37056,-7.34908 -0.11163,-2.98552 0.19683,-5.98767 -0.15523,-8.96103 -0.5356,-3.79876 -4.4602,-7.0019 -8.44385,-6.6645 z m 0.43946,2.54101 c 3.20797,-0.10174 5.98552,3.03863 5.60698,6.20391 -0.0524,3.61692 0.12291,7.24513 -0.11806,10.85442 -0.58622,3.2374 -4.44307,5.37969 -7.48932,4.08029 -2.43534,-0.90875 -3.91823,-3.6223 -3.589,-6.16674 0.0478,-3.4804 -0.11266,-6.97154 0.10798,-10.44475 0.4529,-2.55107 2.88828,-4.56782 5.48142,-4.52713 z" />
        <path
           id="path4991"
           style="stroke:none;stroke-width:2.684;stroke-miterlimit:4;stroke-dasharray:none"
           d="m 361.08789,-597.15234 c -1.10015,0.27264 -1.27364,2.09464 -0.0944,2.40244 1.21413,0.47543 2.49886,0.74939 3.68926,1.29707 10.45738,4.10955 19.05568,12.71957 23.11997,23.19892 0.53734,1.06997 2.44089,0.68366 2.37891,-0.57031 -0.10358,-1.10978 -0.79893,-2.05323 -1.18286,-3.08017 -4.10097,-8.74628 -11.24702,-15.98797 -19.85425,-20.34756 -2.33388,-1.15513 -4.9318,-2.24732 -7.54687,-2.90625 -0.16938,-0.0282 -0.34125,-0.0278 -0.50977,0.006 z" />
        <path
           id="path4997"
           style="stroke:none;stroke-width:2.684;stroke-miterlimit:4;stroke-dasharray:none"
           d="m 349.56836,-598.83789 c -1.29759,0.052 -1.56889,2.20891 -0.24609,2.49219 1.02392,0.33655 2.16173,-0.83699 1.53515,-1.8086 -0.24409,-0.45359 -0.76406,-0.78348 -1.28906,-0.68359 z" />
        <path
           id="path5250"
           style="stroke:none;stroke-width:2.11667"
           d="m 318.64062,-759.13477 c -0.0543,0.86342 0.95663,1.28103 1.68204,1.09571 41.06692,0 82.13385,0 123.20078,0 0,-0.70508 0,-1.41016 0,-2.11524 -1.41081,0 -2.82162,0 -4.23242,0 0,-1.4108 0,-2.82161 0,-4.23242 -0.70573,0 -1.41146,0 -2.11719,0 0,1.41081 0,2.82162 0,4.23242 -3.528,0 -7.05599,0 -10.58399,0 0,-1.4108 0,-2.82161 0,-4.23242 -0.70507,0 -1.41015,0 -2.11523,0 0,1.41081 0,2.82162 0,4.23242 -3.528,0 -7.05599,0 -10.58399,0 0,-1.4108 10e-6,-2.82161 0,-4.23242 -0.70507,0 -1.41015,0 -2.11523,0 0,1.41081 0,2.82162 0,4.23242 -3.52799,0 -7.05599,0 -10.58398,0 0,-1.4108 0,-2.82161 0,-4.23242 -0.70573,0 -1.41146,0 -2.11719,0 0,1.41081 0,2.82162 0,4.23242 -3.528,0 -7.05599,0 -10.58399,0 0,-1.4108 0,-2.82161 0,-4.23242 -0.70507,0 -1.41015,0 -2.11523,0 0,1.41081 0,2.82162 0,4.23242 -3.52799,0 -7.05599,0 -10.58398,0 0,-1.4108 0,-2.82161 0,-4.23242 -0.70573,0 -1.41146,0 -2.11719,0 0,1.41081 0,2.82162 0,4.23242 -3.528,0 -7.05599,0 -10.58399,0 0,-1.4108 0,-2.82161 0,-4.23242 -0.70507,0 -1.41015,0 -2.11523,0 0,1.41081 0,2.82162 0,4.23242 -3.528,0 -7.05599,0 -10.58399,0 0,-1.4108 0,-2.82161 0,-4.23242 -0.70507,0 -1.41015,0 -2.11523,0 0,1.41081 0,2.82162 0,4.23242 -3.52799,0 -7.05599,0 -10.58398,0 0,-1.4108 0,-2.82161 0,-4.23242 -0.70573,0 -1.41146,0 -2.11719,0 0,1.41081 0,2.82162 0,4.23242 -4.9388,0 -9.87761,0 -14.81641,0 0,-4.9388 0,-9.8776 0,-14.8164 1.41081,0 2.82162,0 4.23242,0 0,-0.70573 0,-1.41146 0,-2.11719 -1.4108,0 -2.82161,0 -4.23242,0 0,-3.528 0,-7.05599 0,-10.58399 1.41081,10e-6 2.82162,0 4.23242,0 0,-0.70507 0,-1.41015 0,-2.11523 -1.4108,0 -2.82161,0 -4.23242,0 0,-3.52799 0,-7.05599 0,-10.58398 1.41081,0 2.82162,0 4.23242,0 0,-0.70573 0,-1.41146 0,-2.11719 -1.4108,0 -2.82161,0 -4.23242,0 0,-3.528 0,-7.05599 0,-10.58399 1.41081,0 2.82162,0 4.23242,0 0,-0.70507 0,-1.41015 0,-2.11523 -1.4108,0 -2.82161,0 -4.23242,0 0,-3.52799 0,-7.05599 0,-10.58398 1.41081,0 2.82162,0 4.23242,0 0,-0.70508 0,-1.41016 0,-2.11524 -1.4108,0 -2.82161,0 -4.23242,0 0,-3.52799 0,-7.05599 0,-10.58398 1.41081,0 2.82162,0 4.23242,0 0,-0.70573 0,-1.41146 0,-2.11719 -1.4108,0 -2.82161,0 -4.23242,0 0,-3.528 0,-7.05599 0,-10.58399 1.41081,10e-6 2.82162,0 4.23242,0 0,-0.70507 0,-1.41015 0,-2.11523 -1.4108,0 -2.82161,0 -4.23242,0 0,-3.52799 0,-7.05599 0,-10.58398 1.41081,0 2.82162,0 4.23242,0 0,-0.70573 0,-1.41146 0,-2.11719 -1.4108,0 -2.82161,0 -4.23242,0 0,-3.528 0,-7.05599 0,-10.58399 1.41081,0 2.82162,0 4.23242,0 0,-0.70507 0,-1.41015 0,-2.11523 -1.4108,0 -2.82161,0 -4.23242,0 0,-1.41146 0,-2.82292 0,-4.23438 -0.70573,0 -1.41146,0 -2.11719,0 0,41.26237 0,82.52474 0,123.78711 z" />
        <path
           id="path5252"
           style="stroke:none;stroke-width:2.11667"
           d="m 340.57812,-800.36328 c -2.76189,0.0686 -5.24646,2.77405 -4.99632,5.58664 0.0955,3.00904 3.16658,5.48965 6.13188,4.93048 2.84002,-0.42584 4.98853,-3.43504 4.35053,-6.25968 -0.47599,-2.49018 -2.93719,-4.46004 -5.48609,-4.25744 z m 0.28321,2.10937 c 2.14026,-0.1 3.8449,2.39192 2.95453,4.34862 -0.702,1.98999 -3.55958,2.67109 -5.07758,1.1924 -1.59004,-1.34835 -1.29251,-4.21901 0.59961,-5.14844 0.46448,-0.25654 0.99317,-0.39046 1.52344,-0.39258 z" />
        <path
           id="path5254"
           style="stroke:none;stroke-width:2.11667"
           d="m 346.91602,-823.64648 c -3.00332,0.0925 -5.48941,3.15625 -4.93259,6.11844 0.41036,2.82735 3.38842,4.96918 6.20212,4.37765 2.84345,-0.49903 4.92855,-3.58188 4.19073,-6.40123 -0.55461,-2.42153 -2.95668,-4.29586 -5.46026,-4.09486 z m 0.29882,2.10742 c 2.14139,-0.094 3.84134,2.39928 2.94953,4.35603 -0.70582,1.98546 -3.56011,2.6642 -5.07648,1.18694 -1.58127,-1.34356 -1.29589,-4.19802 0.58008,-5.13868 0.47223,-0.2602 1.00687,-0.40369 1.54687,-0.40429 z" />
        <path
           id="path5256"
           style="stroke:none;stroke-width:2.11667"
           d="m 429.48047,-861.74609 c -2.83627,0.0652 -5.33543,2.89266 -4.98828,5.75976 0.20325,2.98594 3.30622,5.3579 6.24276,4.73516 2.78328,-0.48914 4.85196,-3.4514 4.23098,-6.23345 -0.47978,-2.48872 -2.93361,-4.46586 -5.48546,-4.26147 z m 0.28125,2.10742 c 2.14167,-0.0992 3.84341,2.39549 2.95343,4.35213 -0.70116,1.98412 -3.54745,2.66751 -5.06671,1.19865 -1.5859,-1.3337 -1.31516,-4.17957 0.54687,-5.13477 0.47523,-0.26972 1.02025,-0.41234 1.56641,-0.41601 z" />
        <path
           id="path5258"
           style="stroke:none;stroke-width:2.11667"
           d="m 365.98047,-840.58008 c -2.80163,0.0697 -5.28599,2.8294 -4.99609,5.66797 0.1492,2.99011 3.21802,5.42065 6.16481,4.84356 2.82554,-0.45208 4.95788,-3.44726 4.31465,-6.26683 -0.4895,-2.4784 -2.93918,-4.44804 -5.48337,-4.2447 z m 0.2832,2.10938 c 2.13991,-0.0997 3.83858,2.39099 2.95499,4.34682 -0.70315,2.00517 -3.60164,2.67987 -5.10733,1.1649 -1.59824,-1.37147 -1.22751,-4.28161 0.70703,-5.16211 0.44544,-0.22843 0.94481,-0.34906 1.44531,-0.34961 z" />
        <path
           id="path5260"
           style="stroke:none;stroke-width:2.11667"
           d="m 393.48047,-804.5957 c -3.04215,0.089 -5.52868,3.22699 -4.91591,6.2112 0.46006,2.75331 3.33996,4.82552 6.0995,4.29856 1.31831,-0.20516 2.71467,-1.10179 3.50391,-2.28515 1.49562,-2.07662 1.09252,-5.1839 -0.84271,-6.84398 -1.02697,-0.9608 -2.43822,-1.48072 -3.84479,-1.38063 z m 0.29883,2.10742 c 2.1455,-0.0998 3.84414,2.40073 2.95148,4.35799 -0.7055,1.96856 -3.51655,2.65342 -5.04523,1.21427 -1.60318,-1.32639 -1.34989,-4.19719 0.52539,-5.15429 0.47473,-0.27164 1.02191,-0.41436 1.56836,-0.41797 z" />
        <path
           id="path5262"
           style="stroke:none;stroke-width:2.11667"
           d="m 404.07812,-832.11328 c -2.76189,0.0686 -5.24646,2.77405 -4.99632,5.58664 0.0955,3.00904 3.16658,5.48965 6.13188,4.93048 2.84002,-0.42584 4.98853,-3.43504 4.35053,-6.25968 -0.47599,-2.49018 -2.93719,-4.46004 -5.48609,-4.25744 z m 0.28321,2.10937 c 2.14026,-0.1 3.8449,2.39192 2.95453,4.34862 -0.702,1.98999 -3.55958,2.67109 -5.07758,1.1924 -1.59004,-1.34835 -1.29251,-4.21901 0.59961,-5.14844 0.46448,-0.25654 0.99317,-0.39046 1.52344,-0.39258 z" />
        <path
           id="path5264"
           style="stroke:none;stroke-width:2.11667"
           d="m 399.83203,-868.0957 c -3.04308,0.0872 -5.53071,3.22708 -4.91662,6.21131 0.46695,2.81888 3.4744,4.90892 6.27908,4.2648 2.79275,-0.5452 4.81068,-3.5728 4.11059,-6.35662 -0.56008,-2.42333 -2.95621,-4.33275 -5.47305,-4.11949 z m 0.29688,2.10742 c 2.14468,-0.0995 3.84519,2.40092 2.95148,4.35799 -0.70389,1.96581 -3.5114,2.65382 -5.03937,1.21623 -1.62541,-1.33057 -1.34703,-4.24323 0.56054,-5.17774 0.46495,-0.25864 0.99541,-0.39392 1.52735,-0.39648 z" />
        <path
           id="path5266"
           style="stroke:none;stroke-width:2.11667"
           d="m 441.73047,-882.62109 c -0.39866,0.63524 -1.19962,0.34716 -1.69922,0.0195 -2.76529,-1.09596 -6.20013,0.69187 -6.90529,3.57881 -0.4143,1.48747 -0.0934,2.98757 0.66896,4.3333 -6.71392,6.72426 -13.41518,13.41178 -20.13867,20.13672 -2.07429,-1.3217 -5.04856,-1.07769 -6.73696,0.76342 -1.69713,1.6731 -1.94146,4.50845 -0.68687,6.51001 -1.11665,1.4547 -2.55523,2.62116 -3.80265,3.95981 -1.74105,1.73917 -3.4805,3.47994 -5.22274,5.21793 -0.21593,-1.9868 -0.52667,-4.25258 -2.2388,-5.5466 -2.20392,-1.87249 -5.89162,-1.40271 -7.55502,0.96559 -1.67107,2.17834 -1.24852,5.62311 0.96562,7.27626 1.12604,0.88275 2.57672,1.15878 3.96492,1.31061 0.26872,0.82851 -0.4751,1.36831 -1.00977,1.84961 -2.41252,2.46515 -4.8761,4.88333 -7.31054,7.32812 -2.07822,-1.32442 -5.05889,-1.07922 -6.74609,0.7719 -1.61388,1.6046 -1.93718,4.30064 -0.79883,6.26326 -0.0441,0.99878 -1.09945,1.4277 -1.6329,2.14647 -2.36325,2.36264 -4.72656,4.72522 -7.08976,7.0879 -2.66786,-0.79543 -5.78034,0.83872 -6.54317,3.5368 -0.31485,0.99096 -0.27342,2.05364 -0.0506,3.05891 -6.48923,6.49188 -12.98018,12.98206 -19.47266,19.4707 -2.07633,-1.32717 -5.04953,-1.07926 -6.74429,0.76046 -1.60525,1.61091 -1.94227,4.29695 -0.80258,6.26298 -0.0254,1.00513 -1.09764,1.43498 -1.62895,2.15628 -0.74217,0.74218 -1.48435,1.48435 -2.22652,2.22653 0.4974,0.49739 0.99479,0.99479 1.49219,1.49219 1.34469,-1.34281 2.687,-2.688 4.0332,-4.0293 2.12489,1.37233 5.19588,1.05215 6.86593,-0.89311 1.58199,-1.69221 1.77266,-4.42276 0.5579,-6.37447 1.11429,-1.45531 2.5548,-2.61864 3.79987,-3.95788 5.04879,-5.04693 10.09505,-10.0964 15.14544,-15.14173 1.5909,1.64541 4.20378,2.38148 6.3176,1.33362 2.68681,-1.18242 3.93198,-4.82213 2.37129,-7.34717 -0.3268,-0.55149 -0.73695,-1.04554 -1.12639,-1.55285 2.79851,-2.80175 5.59863,-5.60191 8.40039,-8.4004 2.13705,1.38119 5.22674,1.04673 6.89453,-0.91992 1.55628,-1.69746 1.73784,-4.40468 0.5293,-6.3457 1.11371,-1.45643 2.55438,-2.62074 3.80025,-3.96025 6.13526,-6.13337 12.26796,-12.26931 18.40483,-18.40108 2.07592,1.32022 5.0483,1.07852 6.73961,-0.7627 1.62148,-1.60456 1.94772,-4.30566 0.80726,-6.27245 0.044,-0.9988 1.09949,-1.42766 1.63285,-2.14653 6.11229,-6.11099 12.22199,-12.22458 18.3359,-18.33394 2.08555,1.32113 5.06315,1.07483 6.7579,-0.77616 1.67601,-1.68181 1.92293,-4.49852 0.67179,-6.49728 0.52141,-0.76502 1.22402,-1.37247 1.87305,-2.02344 -0.49925,-0.5007 -1.04389,-0.9552 -1.49219,-1.5039 -0.45638,0.45638 -0.91276,0.91276 -1.36914,1.36914 z m -3.50195,1.8164 c 2.14264,-0.0991 3.84556,2.39717 2.95343,4.35408 -0.70483,1.98147 -3.54722,2.66559 -5.06672,1.19475 -1.60201,-1.34055 -1.30701,-4.22803 0.58985,-5.15625 0.46497,-0.25446 0.99341,-0.39047 1.52344,-0.39258 z m -17.34766,4.24024 c -2.98584,0.17207 -5.38561,3.24117 -4.79447,6.17822 0.41939,2.96414 3.73049,5.09339 6.60009,4.20872 1.02359,-0.21644 2.04737,-0.43203 3.07133,-0.64671 0.32754,-1.98863 1.23649,-4.05782 0.58605,-6.07217 -0.70726,-2.28712 -3.088,-3.85469 -5.463,-3.66806 z m 0.41406,2.10937 c 2.1413,-0.0985 3.8456,2.39534 2.95344,4.35213 -0.70258,1.98407 -3.55045,2.66884 -5.06867,1.19475 -1.59692,-1.34244 -1.30526,-4.22002 0.58789,-5.15235 0.46637,-0.25484 0.99553,-0.39286 1.52734,-0.39453 z m -10.58008,21.16602 c 2.14139,-0.094 3.84134,2.39928 2.94953,4.35603 -0.70582,1.98546 -3.56011,2.6642 -5.07648,1.18694 -1.58127,-1.34356 -1.29589,-4.19802 0.58008,-5.13868 0.47223,-0.2602 1.00687,-0.40369 1.54687,-0.40429 z m -19.05273,10.58398 c 2.14379,-0.0994 3.84567,2.3993 2.95148,4.35604 -0.70134,1.96883 -3.51109,2.65571 -5.03937,1.21818 -1.61084,-1.3241 -1.35492,-4.20745 0.52734,-5.16016 0.4738,-0.26856 1.01558,-0.41202 1.56055,-0.41406 z m -10.58399,19.05078 c 2.14375,-0.10067 3.84511,2.39736 2.95344,4.35409 -0.70453,1.98268 -3.55035,2.6653 -5.06867,1.19279 -1.59968,-1.34303 -1.30364,-4.22452 0.5918,-5.1543 0.46448,-0.25654 0.99316,-0.39046 1.52343,-0.39258 z m -14.81445,16.9336 c 2.13991,-0.0997 3.83858,2.39099 2.95499,4.34682 -0.70315,2.00517 -3.60164,2.67987 -5.10733,1.1649 -1.59824,-1.37147 -1.22751,-4.28161 0.70703,-5.16211 0.44544,-0.22843 0.94481,-0.34906 1.44531,-0.34961 z m -27.51562,25.39843 c 2.14138,-0.094 3.84133,2.39929 2.94952,4.35604 -0.70572,1.98579 -3.55976,2.66443 -5.07648,1.18693 -1.58127,-1.34355 -1.29589,-4.19801 0.58008,-5.13867 0.47223,-0.2602 1.00687,-0.4037 1.54688,-0.4043 z" />
        <path
           id="XMLID_392_"
           style="stroke:none;stroke-width:1.965;stroke-miterlimit:4;stroke-dasharray:none"
           d="m 161.42773,-768.13086 c -13.53116,0.0426 -27.06399,-0.0352 -40.59561,0.0591 -1.92499,-0.0965 -3.89111,0.1384 -5.63604,1.00151 -3.87023,1.76671 -6.69883,5.76391 -6.78202,10.05654 -0.11936,3.27813 0.0276,6.66123 -0.0414,9.98008 0.006,21.26226 -0.048,42.52614 0.0716,63.78732 0.50603,5.55458 5.55658,10.3237 11.16512,10.34783 3.2268,0.0791 6.45515,-0.0179 9.68281,0.0275 10.13698,5.9e-4 20.27396,10e-4 30.41093,0.002 0,5.9974 10e-6,11.99479 0,17.99219 -3.67521,0.11701 -7.57528,-0.4896 -11.00994,1.16243 -4.2675,1.98135 -7.358,6.49075 -7.35724,11.23405 -0.17267,0.83622 0.61721,1.48909 1.41211,1.37695 7.00817,-0.079 14.0178,-0.001 21.02656,-0.0218 14.37895,0.0121 28.75968,0.008 43.1375,-0.031 0.99813,-0.2969 0.892,-1.54841 0.76172,-2.36523 -0.52267,-4.98924 -4.25524,-9.49582 -9.09375,-10.85157 -3.02833,-0.81154 -6.139,-0.41564 -9.2461,-0.50195 0,-5.99805 0,-11.99609 0,-17.99414 13.71447,-0.0224 27.43134,0.0724 41.14418,-0.0884 5.37142,-0.6048 9.99963,-5.4195 10.13011,-10.87108 0.17026,-3.03969 -0.0341,-6.08541 0.056,-9.12767 -0.006,-21.55804 0.0408,-43.11736 -0.0624,-64.67455 -0.44565,-5.65208 -5.62456,-10.51059 -11.32048,-10.46364 -4.2604,-0.0829 -8.52338,0.0172 -12.7849,-0.022 -10.11994,-0.009 -20.23992,-0.0128 -30.35977,0.0364 -0.99936,0.21472 -0.98726,2.03619 0.14648,2.01367 1.53502,0.20721 3.08576,-0.0515 4.62774,0.0624 13.12422,0.0128 26.25158,-0.0517 39.37372,0.0818 4.44137,0.51809 8.0929,4.5648 8.29737,9.00621 0.25844,0.99639 -0.8994,1.77502 -1.79492,1.49414 -42.13346,6.5e-4 -84.26693,0.001 -126.40039,0.002 -0.15633,-3.6621 1.62783,-7.46385 4.86455,-9.30785 2.85387,-1.71366 6.29549,-1.22143 9.46357,-1.26589 12.7604,-0.0295 25.52115,0.0421 38.28125,-0.0728 0.93719,-0.32181 0.82008,-2.04142 -0.2735,-2.01149 -0.4258,-0.0759 -0.86392,-0.0661 -1.29486,-0.053 z m -50.41015,14.82813 c 42.51041,0 85.02083,0 127.53125,0 0,19.05013 0,38.10026 0,57.15039 -42.68685,0 -85.3737,0 -128.06055,0 0,-19.05013 0,-38.10026 0,-57.15039 0.17643,0 0.35287,0 0.5293,0 z m 0.5293,59.26562 c 42.33723,0 84.67447,0 127.01171,0 -0.14385,3.95897 0.27111,7.95197 -0.2946,11.88544 -1.0752,4.40302 -5.62336,7.63384 -10.13977,7.14978 -35.08491,0.0116 -70.1703,0.034 -105.2549,-0.0233 -2.38621,-0.001 -4.93722,0.25763 -7.10579,-0.96077 -3.38771,-1.70563 -5.62222,-5.51723 -5.26557,-9.32185 -0.0281,-2.64539 0.0127,-5.29091 -0.0116,-7.93633 0.12256,-0.50294 0.53841,-0.82752 1.06055,-0.79297 z m 50.80078,21.16797 c 8.29036,0 16.58073,0 24.87109,0 0,5.9974 0,11.99479 0,17.99219 -8.4668,0 -16.93359,0 -25.40039,0 0,-5.9974 0,-11.99479 0,-17.99219 0.17643,0 0.35286,0 0.5293,0 z m -7.27539,20.08789 c 13.63989,0.0551 27.28184,-0.0344 40.92048,0.0738 4.11461,0.3124 7.76876,3.34356 9.11637,7.18685 0.4162,0.70677 0.38972,1.80347 -0.48021,2.14755 -0.90833,0.36158 -1.89805,0.0245 -2.84414,0.14059 -19.5155,-0.001 -39.03099,-0.003 -58.54649,-0.004 0.74703,-3.55547 2.9129,-6.97547 6.28701,-8.53208 1.72235,-0.83288 3.65837,-1.01996 5.54698,-1.01284 z" />
        <path
           id="XMLID_396_"
           style="stroke:none;stroke-width:1.965;stroke-miterlimit:4;stroke-dasharray:none"
           d="m 174.33594,-685.5625 c -1.08565,0.18782 -1.08138,2.14581 0.13122,2.09823 0.85119,0.046 1.56498,-1.02376 0.89417,-1.69979 -0.24771,-0.29604 -0.63916,-0.46786 -1.02539,-0.39844 z" />
        <path
           id="XMLID_397_"
           style="stroke:none;stroke-width:1.965;stroke-miterlimit:4;stroke-dasharray:none"
           d="m 135.24805,-743.77344 c -2.07874,0.0171 -4.18134,-0.0922 -6.24414,0.12305 -0.79438,0.46732 -0.59372,2.02488 0.46824,1.92737 1.6402,0.19258 3.29618,-0.0443 4.94308,0.0614 1.40564,-0.0244 2.85096,0.11361 4.22735,-0.17821 0.73284,-0.54796 0.39718,-2.01177 -0.61719,-1.92774 -0.92411,-0.0478 -1.85213,-3.7e-4 -2.77734,-0.006 z" />
        <path
           id="XMLID_398_"
           style="stroke:none;stroke-width:1.965;stroke-miterlimit:4;stroke-dasharray:none"
           d="m 143.48438,-732.13672 c -4.79228,0.025 -9.58594,-0.0639 -14.37696,0.0801 -0.9325,0.37768 -0.7168,2.12505 0.41402,1.98493 1.65981,0.17314 3.33243,-0.0466 4.9977,0.051 3.49362,-0.0201 6.99005,0.0816 10.48086,-0.10424 0.87275,-0.42959 0.61199,-2.06675 -0.44963,-1.99135 -0.35317,-0.0507 -0.71077,-0.0202 -1.06599,-0.0204 z" />
        <path
           id="XMLID_399_"
           style="stroke:none;stroke-width:1.965;stroke-miterlimit:4;stroke-dasharray:none"
           d="m 138.22656,-720.48828 c -3.05129,0.0415 -6.11925,-0.0145 -9.16015,0.0879 -0.84763,0.42125 -0.69681,2.04354 0.39509,1.96008 1.57959,0.20648 3.17684,-0.0573 4.76389,0.0617 10.91315,-0.004 21.82663,0.0422 32.73945,-0.0628 0.95304,-0.33264 0.81242,-2.0871 -0.31054,-2.02734 -5.87139,-0.0736 -11.74809,-0.01 -17.62149,-0.0312 -3.60208,1.5e-4 -7.20416,0.008 -10.80625,0.0117 z" />
        <path
           id="XMLID_400_"
           style="stroke:none;stroke-width:1.965;stroke-miterlimit:4;stroke-dasharray:none"
           d="m 185.13086,-732.13477 c -9.68296,10e-4 -19.36618,-0.0393 -29.04883,0.0586 -0.96027,0.30261 -0.84954,2.09112 0.28962,1.99524 1.57959,0.20642 3.17685,-0.0572 4.7639,0.0616 8.58895,-0.003 17.17816,0.0309 25.76679,-0.0607 0.9257,-0.30545 0.84899,-2.01708 -0.23046,-2.01758 -0.50966,-0.0805 -1.02766,-0.038 -1.54102,-0.0371 z" />
        <path
           id="XMLID_401_"
           style="stroke:none;stroke-width:1.965;stroke-miterlimit:4;stroke-dasharray:none"
           d="m 194.06641,-720.49414 c -5.33068,0.0249 -10.66309,-0.0781 -15.99219,0.0918 -0.8923,0.36572 -0.71765,2.06604 0.36791,1.96578 1.64618,0.17301 3.30566,-0.03 4.95785,0.0503 4.09057,-0.0193 8.18469,0.10993 12.2719,-0.11378 0.88691,-0.45811 0.55543,-2.09702 -0.5229,-1.98429 -0.35963,-0.0419 -0.72165,-0.0118 -1.08257,-0.01 z" />
        <path
           id="XMLID_402_"
           style="stroke:none;stroke-width:1.965;stroke-miterlimit:4;stroke-dasharray:none"
           d="m 218.38477,-720.49219 c -3.53053,0.0236 -7.06338,-0.0741 -10.5918,0.0859 -0.90849,0.38058 -0.7199,2.0949 0.39622,1.97268 1.63377,0.1798 3.28167,-0.047 4.92175,0.0486 2.33249,-0.0251 4.69754,0.14133 7.00625,-0.16974 0.77404,-0.57814 0.35745,-2.07357 -0.69531,-1.93945 -0.34563,-0.0296 -0.69109,-0.003 -1.03711,0.002 z" />
        <path
           id="XMLID_416_"
           style="stroke:none;stroke-width:1.965;stroke-miterlimit:4;stroke-dasharray:none"
           d="m 135.37305,-708.8418 c -2.13308,0.0453 -4.29703,-0.15903 -6.40821,0.14453 -0.75404,0.47998 -0.52342,1.99041 0.49693,1.90056 1.79547,0.18606 3.60429,-0.0507 5.40579,0.0621 0.96919,-0.0205 2.06926,0.14593 2.93371,-0.32992 0.55431,-0.64272 0.12507,-1.87489 -0.80713,-1.7831 -0.53941,-0.0396 -1.08118,-0.003 -1.62109,0.006 z" />
        <path
           id="XMLID_417_"
           style="stroke:none;stroke-width:1.965;stroke-miterlimit:4;stroke-dasharray:none"
           d="m 174.40234,-768.125 c -1.136,0.0662 -1.24049,2.0994 -0.0156,2.11133 0.85655,0.0824 1.60864,-0.97808 0.95898,-1.67774 -0.2242,-0.28101 -0.58048,-0.4611 -0.94336,-0.43359 z" />
        <path
           id="path2260"
           style="stroke:none;stroke-width:1.965;stroke-miterlimit:4;stroke-dasharray:none"
           d="m 161.42773,-768.13086 c -13.53116,0.0426 -27.06399,-0.0352 -40.59561,0.0591 -1.92499,-0.0965 -3.89111,0.1384 -5.63604,1.00151 -3.87023,1.76671 -6.69883,5.76391 -6.78202,10.05654 -0.11936,3.27813 0.0276,6.66123 -0.0414,9.98008 0.006,21.26226 -0.048,42.52614 0.0716,63.78732 0.50603,5.55458 5.55658,10.3237 11.16512,10.34783 3.2268,0.0791 6.45515,-0.0179 9.68281,0.0275 10.13698,5.9e-4 20.27396,10e-4 30.41093,0.002 0,5.9974 10e-6,11.99479 0,17.99219 -3.67521,0.11701 -7.57528,-0.4896 -11.00994,1.16243 -4.2675,1.98135 -7.358,6.49075 -7.35724,11.23405 -0.17267,0.83622 0.61721,1.48909 1.41211,1.37695 7.00817,-0.079 14.0178,-0.001 21.02656,-0.0218 14.37895,0.0121 28.75968,0.008 43.1375,-0.031 0.99813,-0.2969 0.892,-1.54841 0.76172,-2.36523 -0.52267,-4.98924 -4.25524,-9.49582 -9.09375,-10.85157 -3.02833,-0.81154 -6.139,-0.41564 -9.2461,-0.50195 0,-5.99805 0,-11.99609 0,-17.99414 13.71447,-0.0224 27.43134,0.0724 41.14418,-0.0884 5.37142,-0.6048 9.99963,-5.4195 10.13011,-10.87108 0.17026,-3.03969 -0.0341,-6.08541 0.056,-9.12767 -0.006,-21.55804 0.0408,-43.11736 -0.0624,-64.67455 -0.44565,-5.65208 -5.62456,-10.51059 -11.32048,-10.46364 -4.2604,-0.0829 -8.52338,0.0172 -12.7849,-0.022 -10.11994,-0.009 -20.23992,-0.0128 -30.35977,0.0364 -0.99936,0.21472 -0.98726,2.03619 0.14648,2.01367 1.53502,0.20721 3.08576,-0.0515 4.62774,0.0624 13.12422,0.0128 26.25158,-0.0517 39.37372,0.0818 4.44137,0.51809 8.0929,4.5648 8.29737,9.00621 0.25844,0.99639 -0.8994,1.77502 -1.79492,1.49414 -42.13346,6.5e-4 -84.26693,0.001 -126.40039,0.002 -0.15633,-3.6621 1.62783,-7.46385 4.86455,-9.30785 2.85387,-1.71366 6.29549,-1.22143 9.46357,-1.26589 12.7604,-0.0295 25.52115,0.0421 38.28125,-0.0728 0.93719,-0.32181 0.82008,-2.04142 -0.2735,-2.01149 -0.4258,-0.0759 -0.86392,-0.0661 -1.29486,-0.053 z m -50.41015,14.82813 c 42.51041,0 85.02083,0 127.53125,0 0,19.05013 0,38.10026 0,57.15039 -42.68685,0 -85.3737,0 -128.06055,0 0,-19.05013 0,-38.10026 0,-57.15039 0.17643,0 0.35287,0 0.5293,0 z m 0.5293,59.26562 c 42.33723,0 84.67447,0 127.01171,0 -0.14385,3.95897 0.27111,7.95197 -0.2946,11.88544 -1.0752,4.40302 -5.62336,7.63384 -10.13977,7.14978 -35.08491,0.0116 -70.1703,0.034 -105.2549,-0.0233 -2.38621,-0.001 -4.93722,0.25763 -7.10579,-0.96077 -3.38771,-1.70563 -5.62222,-5.51723 -5.26557,-9.32185 -0.0281,-2.64539 0.0127,-5.29091 -0.0116,-7.93633 0.12256,-0.50294 0.53841,-0.82752 1.06055,-0.79297 z m 50.80078,21.16797 c 8.29036,0 16.58073,0 24.87109,0 0,5.9974 0,11.99479 0,17.99219 -8.4668,0 -16.93359,0 -25.40039,0 0,-5.9974 0,-11.99479 0,-17.99219 0.17643,0 0.35286,0 0.5293,0 z m -7.27539,20.08789 c 13.63989,0.0551 27.28184,-0.0344 40.92048,0.0738 4.11461,0.3124 7.76876,3.34356 9.11637,7.18685 0.4162,0.70677 0.38972,1.80347 -0.48021,2.14755 -0.90833,0.36158 -1.89805,0.0245 -2.84414,0.14059 -19.5155,-0.001 -39.03099,-0.003 -58.54649,-0.004 0.74703,-3.55547 2.9129,-6.97547 6.28701,-8.53208 1.72235,-0.83288 3.65837,-1.01996 5.54698,-1.01284 z" />
        <path
           id="path2262"
           style="stroke:none;stroke-width:1.965;stroke-miterlimit:4;stroke-dasharray:none"
           d="m 174.33594,-685.5625 c -1.08565,0.18782 -1.08138,2.14581 0.13122,2.09823 0.85119,0.046 1.56498,-1.02376 0.89417,-1.69979 -0.24771,-0.29604 -0.63916,-0.46786 -1.02539,-0.39844 z" />
        <path
           id="path2264"
           style="stroke:none;stroke-width:1.965;stroke-miterlimit:4;stroke-dasharray:none"
           d="m 135.24805,-743.77344 c -2.07874,0.0171 -4.18134,-0.0922 -6.24414,0.12305 -0.79438,0.46732 -0.59372,2.02488 0.46824,1.92737 1.6402,0.19258 3.29618,-0.0443 4.94308,0.0614 1.40564,-0.0244 2.85096,0.11361 4.22735,-0.17821 0.73284,-0.54796 0.39718,-2.01177 -0.61719,-1.92774 -0.92411,-0.0478 -1.85213,-3.7e-4 -2.77734,-0.006 z" />
        <path
           id="path2266"
           style="stroke:none;stroke-width:1.965;stroke-miterlimit:4;stroke-dasharray:none"
           d="m 143.48438,-732.13672 c -4.79228,0.025 -9.58594,-0.0639 -14.37696,0.0801 -0.9325,0.37768 -0.7168,2.12505 0.41402,1.98493 1.65981,0.17314 3.33243,-0.0466 4.9977,0.051 3.49362,-0.0201 6.99005,0.0816 10.48086,-0.10424 0.87275,-0.42959 0.61199,-2.06675 -0.44963,-1.99135 -0.35317,-0.0507 -0.71077,-0.0202 -1.06599,-0.0204 z" />
        <path
           id="path2268"
           style="stroke:none;stroke-width:1.965;stroke-miterlimit:4;stroke-dasharray:none"
           d="m 138.22656,-720.48828 c -3.05129,0.0415 -6.11925,-0.0145 -9.16015,0.0879 -0.84763,0.42125 -0.69681,2.04354 0.39509,1.96008 1.57959,0.20648 3.17684,-0.0573 4.76389,0.0617 10.91315,-0.004 21.82663,0.0422 32.73945,-0.0628 0.95304,-0.33264 0.81242,-2.0871 -0.31054,-2.02734 -5.87139,-0.0736 -11.74809,-0.01 -17.62149,-0.0312 -3.60208,1.5e-4 -7.20416,0.008 -10.80625,0.0117 z" />
        <path
           id="path2270"
           style="stroke:none;stroke-width:1.965;stroke-miterlimit:4;stroke-dasharray:none"
           d="m 185.13086,-732.13477 c -9.68296,10e-4 -19.36618,-0.0393 -29.04883,0.0586 -0.96027,0.30261 -0.84954,2.09112 0.28962,1.99524 1.57959,0.20642 3.17685,-0.0572 4.7639,0.0616 8.58895,-0.003 17.17816,0.0309 25.76679,-0.0607 0.9257,-0.30545 0.84899,-2.01708 -0.23046,-2.01758 -0.50966,-0.0805 -1.02766,-0.038 -1.54102,-0.0371 z" />
        <path
           id="path2272"
           style="stroke:none;stroke-width:1.965;stroke-miterlimit:4;stroke-dasharray:none"
           d="m 194.06641,-720.49414 c -5.33068,0.0249 -10.66309,-0.0781 -15.99219,0.0918 -0.8923,0.36572 -0.71765,2.06604 0.36791,1.96578 1.64618,0.17301 3.30566,-0.03 4.95785,0.0503 4.09057,-0.0193 8.18469,0.10993 12.2719,-0.11378 0.88691,-0.45811 0.55543,-2.09702 -0.5229,-1.98429 -0.35963,-0.0419 -0.72165,-0.0118 -1.08257,-0.01 z" />
        <path
           id="path2274"
           style="stroke:none;stroke-width:1.965;stroke-miterlimit:4;stroke-dasharray:none"
           d="m 218.38477,-720.49219 c -3.53053,0.0236 -7.06338,-0.0741 -10.5918,0.0859 -0.90849,0.38058 -0.7199,2.0949 0.39622,1.97268 1.63377,0.1798 3.28167,-0.047 4.92175,0.0486 2.33249,-0.0251 4.69754,0.14133 7.00625,-0.16974 0.77404,-0.57814 0.35745,-2.07357 -0.69531,-1.93945 -0.34563,-0.0296 -0.69109,-0.003 -1.03711,0.002 z" />
        <path
           id="path2276"
           style="stroke:none;stroke-width:1.965;stroke-miterlimit:4;stroke-dasharray:none"
           d="m 135.37305,-708.8418 c -2.13308,0.0453 -4.29703,-0.15903 -6.40821,0.14453 -0.75404,0.47998 -0.52342,1.99041 0.49693,1.90056 1.79547,0.18606 3.60429,-0.0507 5.40579,0.0621 0.96919,-0.0205 2.06926,0.14593 2.93371,-0.32992 0.55431,-0.64272 0.12507,-1.87489 -0.80713,-1.7831 -0.53941,-0.0396 -1.08118,-0.003 -1.62109,0.006 z" />
        <path
           id="path2278"
           style="stroke:none;stroke-width:1.965;stroke-miterlimit:4;stroke-dasharray:none"
           d="m 172.82651,-768.125 c -1.136,0.0662 -1.24049,2.0994 -0.0156,2.11133 0.0778,0.007 3.77356,0.006 3.84867,-0.005 0.75176,-0.10256 1.31978,-1.03692 0.72913,-1.67303 -0.17321,-0.2171 -0.42525,-0.37396 -0.69826,-0.4214 -0.0804,-0.014 -3.78139,-0.0122 -3.86392,-0.0122 z"
           sodipodi:nodetypes="scscsss" />
      </g>
    </g>
    <g
       id="g4297"
       transform="translate(-1.7767463)">
      <path
         id="path13516"
         style="stroke:none;stroke-width:2.165;stroke-miterlimit:4;stroke-dasharray:none"
         d="m 612.96484,-804.24414 c -6.83853,0.0442 -13.6874,-0.0735 -20.52053,0.0821 -1.19368,0.36255 -1.40251,2.07733 -0.54861,2.89123 9.91826,17.17815 19.8363,34.35642 29.75469,51.53449 -10.08254,17.46646 -20.1883,34.91956 -30.21875,52.41602 -0.46298,1.23279 0.95731,2.45021 2.14492,2.08988 6.9478,10e-4 13.89569,0.0169 20.84336,-0.0352 1.36049,-0.47294 1.64026,-2.07038 2.41645,-3.12045 9.77782,-16.93584 19.58035,-33.85656 29.2984,-50.82682 0.33478,-1.34487 -0.8764,-2.36135 -1.3703,-3.49677 -9.81757,-16.99907 -19.60597,-34.01155 -29.47345,-50.97784 -0.57253,-0.66005 -1.54163,-0.56449 -2.32618,-0.55664 z m -16.36718,3.18164 c 5.52734,0 11.05468,0 16.58203,0 9.88033,17.10855 19.75742,34.21898 29.63672,51.32812 -9.87931,17.1098 -19.75638,34.22089 -29.63672,51.33008 -5.83268,0 -11.66537,0 -17.49805,0 9.76929,-16.92542 19.55811,-33.83959 29.28906,-50.78711 0.33161,-1.36365 -0.88118,-2.39763 -1.38789,-3.54558 -9.30019,-16.10862 -18.60199,-32.21631 -27.90117,-48.32551 0.30534,0 0.61068,0 0.91602,0 z" />
      <path
         id="path13518"
         style="stroke:none;stroke-width:2.165;stroke-miterlimit:4;stroke-dasharray:none"
         d="m 573.66406,-804.24219 c -6.81252,0.0392 -13.63509,-0.0731 -20.44259,0.0795 -1.14916,0.33745 -1.42908,1.97864 -0.61087,2.79032 3.14314,5.36782 6.1419,10.83061 9.41088,16.11851 1.05478,0.92451 3.11025,-0.28268 2.48047,-1.67187 -0.51771,-1.42793 -1.52294,-2.6106 -2.18015,-3.97336 -1.95602,-3.3879 -3.91381,-6.77479 -5.86868,-10.16336 5.83334,0 11.66667,0 17.5,0 9.88033,17.10855 19.75743,34.21898 29.63672,51.32812 -9.8793,17.1098 -19.75638,34.22089 -29.63672,51.33008 -5.83333,0 -11.66666,0 -17.5,0 9.76929,-16.92542 19.55811,-33.83959 29.28907,-50.78711 0.33152,-1.32891 -0.83871,-2.34465 -1.33722,-3.46349 -2.82219,-4.8127 -5.51059,-9.71037 -8.44599,-14.45252 -1.04254,-0.96267 -3.12434,0.23719 -2.50976,1.63867 0.50185,1.39354 1.47972,2.54846 2.12278,3.87634 2.28237,3.95283 4.56689,7.90443 6.84792,11.85803 -10.08265,17.46567 -20.18697,34.91797 -30.2168,52.41407 -0.46368,1.23295 0.95753,2.45002 2.14493,2.08988 6.94975,10e-4 13.89959,0.0169 20.84922,-0.0352 1.33282,-0.45926 1.61896,-2.02513 2.37423,-3.05339 9.79027,-16.95801 19.60622,-33.90033 29.33475,-50.89388 0.33478,-1.34487 -0.87639,-2.36135 -1.3703,-3.49677 -9.81554,-16.99855 -19.60699,-34.0076 -29.4715,-50.97393 -0.59723,-0.67991 -1.5874,-0.56739 -2.40039,-0.5586 z" />
      <path
         id="path13520"
         style="stroke:none;stroke-width:2.165;stroke-miterlimit:4;stroke-dasharray:none"
         d="m 534.43359,-804.24219 c -6.81191,0.039 -13.6337,-0.0727 -20.4407,0.0792 -1.15263,0.3385 -1.43002,1.99031 -0.605,2.80038 9.93519,17.20875 19.87014,34.41763 29.80547,51.62629 -10.08254,17.46646 -20.1883,34.91956 -30.21875,52.41602 -0.46368,1.23295 0.95753,2.45002 2.14492,2.08988 6.94845,10e-4 13.89699,0.0169 20.84531,-0.0352 1.34489,-0.4566 1.62253,-2.03651 2.38595,-3.06707 9.78651,-16.94739 19.58239,-33.88939 29.33085,-50.85872 0.33161,-1.36365 -0.88119,-2.39763 -1.38789,-3.54558 -9.81374,-16.98926 -19.60308,-33.98918 -29.46172,-50.94856 -0.59852,-0.6795 -1.58479,-0.56485 -2.39844,-0.55664 z m -16.29297,3.17969 c 5.528,0 11.05599,0 16.58399,0 9.88033,17.10855 19.75742,34.21898 29.63672,51.32812 -9.87931,17.1098 -19.75638,34.22089 -29.63672,51.33008 -5.83333,0 -11.66667,0 -17.5,0 9.76925,-16.92479 19.55689,-33.83899 29.28906,-50.78515 0.33442,-1.32871 -0.83931,-2.34374 -1.33711,-3.4616 -9.31711,-16.13727 -18.63588,-32.27358 -27.95195,-48.41145 0.30534,0 0.61068,0 0.91601,0 z" />
      <path
         id="path13522"
         style="stroke:none;stroke-width:2.165;stroke-miterlimit:4;stroke-dasharray:none"
         d="m 568.66406,-777.76758 c -1.39079,0.23549 -1.7448,2.49443 -0.36702,3.02365 1.13612,0.52335 2.66755,-0.61627 2.20687,-1.87521 -0.24255,-0.77452 -1.02998,-1.29095 -1.83985,-1.14844 z" />
    </g>
    <g
       id="g4291"
       transform="translate(-5.0931749)">
      <path
         id="path14011"
         style="stroke:none;stroke-width:2.165;stroke-miterlimit:4;stroke-dasharray:none"
         d="m 7.4316406,-804.24609 c -6.85628046,0.0325 -13.7171227,-0.0347 -20.5712136,0.0423 -1.157402,0.19652 -1.646394,1.76981 -0.881524,2.6348 9.9751611,17.27818 19.9500823,34.55651 29.925394,51.8346 -10.065438,17.45514 -20.1776131,34.8857 -30.200956,52.36364 -0.485401,1.13723 0.716031,2.41121 1.887284,2.14031 7.0261297,-0.0136 14.0566346,0.0371 21.0800106,-0.0356 1.2359129,-0.33183 1.5084364,-1.78051 2.1813284,-2.70209 9.841103,-17.06152 19.719073,-34.1037 29.522,-51.18604 0.417544,-1.16248 -0.64092,-2.13205 -1.098962,-3.11084 -9.900172,-17.13458 -19.774315,-34.28616 -29.7074898,-51.39987 -0.4980071,-0.64745 -1.4086218,-0.58286 -2.1358716,-0.58122 z m -16.5800781,3.18359 c 5.5279948,0 11.0559896,0 16.5839844,0 9.8803281,17.10855 19.7574211,34.21898 29.6367191,51.32812 -9.879308,17.1098 -19.756381,34.22089 -29.6367191,51.33008 -5.8333334,0 -11.6666667,0 -17.4999999,0 9.75987941,-16.92922 19.5684285,-33.83315 29.287907,-50.78394 0.375025,-1.20663 -0.722042,-2.17242 -1.180876,-3.19004 -9.3688136,-16.22819 -18.73920366,-32.45547 -28.107031,-48.68422 0.3053384,0 0.610677,0 0.9160155,0 z" />
      <path
         id="path14013"
         style="stroke:none;stroke-width:2.165;stroke-miterlimit:4;stroke-dasharray:none"
         d="m -31.796875,-804.24609 c -6.856353,0.0321 -13.716977,-0.0338 -20.571323,0.0417 -1.191859,0.20815 -1.639921,1.83242 -0.846267,2.69991 3.100063,5.34295 6.151565,10.71772 9.291162,16.03528 0.848781,1.10265 2.900725,0.37571 2.785169,-1.04477 -0.189336,-1.21407 -1.11581,-2.14891 -1.624385,-3.24001 -2.175983,-3.7696 -4.353524,-7.5383 -6.528497,-11.30848 5.832683,0 11.665365,0 17.498047,0 9.880329,17.10855 19.757422,34.21898 29.636719,51.32812 -9.879308,17.1098 -19.75638,34.22089 -29.636719,51.33008 -5.832682,0 -11.665364,0 -17.498047,0 9.754727,-16.91758 19.550777,-33.81326 29.270449,-50.74986 0.421108,-1.19788 -0.686625,-2.18706 -1.148913,-3.19747 -2.841352,-4.87566 -5.599903,-9.80674 -8.503445,-14.64154 -0.916406,-1.01913 -2.876496,-0.22128 -2.723559,1.17676 0.246398,1.21488 1.149621,2.16576 1.673067,3.26707 2.466426,4.27164 4.932642,8.5434 7.399198,12.81496 -10.062487,17.44823 -20.166002,34.87458 -30.190754,52.34345 -0.509283,1.13614 0.698486,2.43528 1.877082,2.1605 7.02613,-0.0136 14.056635,0.0371 21.080011,-0.0356 1.235913,-0.33183 1.508437,-1.78051 2.181328,-2.70209 9.845679,-17.07347 19.7353426,-34.12444 29.5392475,-51.22021 0.3732369,-1.2045 -0.71738166,-2.17471 -1.18065925,-3.18996 -9.87791675,-17.09726 -19.73060025,-34.21107 -29.64303925,-51.28658 -0.498007,-0.64745 -1.408622,-0.58286 -2.135872,-0.58122 z" />
      <path
         id="path14015"
         style="stroke:none;stroke-width:2.165;stroke-miterlimit:4;stroke-dasharray:none"
         d="m -71.025391,-804.24609 c -6.856353,0.0321 -13.716977,-0.0338 -20.571323,0.0417 -1.191849,0.20815 -1.63994,1.83243 -0.846253,2.6999 9.963438,17.2567 19.926657,34.51353 29.890233,51.77015 -10.062488,17.44823 -20.166003,34.87458 -30.190755,52.34345 -0.509282,1.13614 0.698487,2.43528 1.877083,2.1605 7.026781,-0.0136 14.057936,0.0371 21.081964,-0.0356 1.233854,-0.33541 1.506478,-1.77776 2.179375,-2.70209 9.845819,-17.07341 19.735061,-34.12455 29.539458,-51.22012 0.375029,-1.20663 -0.722048,-2.17242 -1.18087,-3.19005 -9.877917,-17.09726 -19.730601,-34.21107 -29.64304,-51.28658 -0.495099,-0.65029 -1.409803,-0.5812 -2.135872,-0.58122 z m -16.578125,3.18359 c 5.527344,0 11.054688,0 16.582032,0 9.880328,17.10855 19.757421,34.21898 29.636718,51.32812 -9.879307,17.1098 -19.75638,34.22089 -29.636718,51.33008 -5.832683,0 -11.665365,0 -17.498047,0 9.754727,-16.91758 19.550777,-33.81326 29.270448,-50.74986 0.421081,-1.19787 -0.686567,-2.18709 -1.14896,-3.19745 -9.373637,-16.23707 -18.748818,-32.47326 -28.121488,-48.71089 0.305338,0 0.610677,0 0.916015,0 z" />
      <path
         id="path14017"
         style="stroke:none;stroke-width:2.165;stroke-miterlimit:4;stroke-dasharray:none"
         d="m -36.957031,-777.76758 c -1.346879,0.0882 -1.901831,2.06253 -0.78711,2.83985 1.000132,0.80311 2.71582,-0.04 2.563466,-1.35172 -0.05673,-0.86946 -0.890372,-1.62919 -1.776356,-1.48813 z" />
    </g>
  </g>
</svg>
